<svg xmlns="http://www.w3.org/2000/svg" xmlns:xlink="http://www.w3.org/1999/xlink" width="2000" zoomAndPan="magnify" viewBox="0 0 1500 374.999991" height="500" preserveAspectRatio="xMidYMid meet" version="1.0"><defs><g/><clipPath id="989fa0b395"><path d="M 481 12 L 697 12 L 697 370 L 481 370 Z M 481 12 " clip-rule="nonzero"/></clipPath><clipPath id="96a1480562"><path d="M 479.761719 11.386719 L 753.417969 65.714844 L 692.664062 371.742188 L 419.003906 317.414062 Z M 479.761719 11.386719 " clip-rule="nonzero"/></clipPath><clipPath id="5915a89f90"><path d="M 479.761719 11.386719 L 753.417969 65.714844 L 692.664062 371.742188 L 419.003906 317.414062 Z M 479.761719 11.386719 " clip-rule="nonzero"/></clipPath><clipPath id="a188554ccb"><path d="M 685 148 L 835 148 L 835 305 L 685 305 Z M 685 148 " clip-rule="nonzero"/></clipPath><clipPath id="2b96fb1ec1"><path d="M 681.347656 152.113281 L 834.273438 147.359375 L 839.027344 300.285156 L 686.101562 305.039062 Z M 681.347656 152.113281 " clip-rule="nonzero"/></clipPath><clipPath id="0ccfc4bc7c"><path d="M 681.347656 152.113281 L 834.273438 147.359375 L 839.027344 300.285156 L 686.101562 305.039062 Z M 681.347656 152.113281 " clip-rule="nonzero"/></clipPath><clipPath id="079865319f"><rect x="0" width="1499" y="0" height="154"/></clipPath></defs><g clip-path="url(#989fa0b395)"><g clip-path="url(#96a1480562)"><g clip-path="url(#5915a89f90)"><path fill="#4bab13" d="M 676.066406 364.214844 C 671.933594 279.667969 676.085938 218.441406 620.640625 153.019531 C 618.953125 150.949219 617.71875 149.5625 617.347656 149.378906 C 617.007812 149.914062 618.640625 151.945312 619.371094 153.335938 C 636.933594 179.949219 665.136719 231.6875 654.277344 262.765625 C 642.25 286.152344 603.09375 268.96875 587.519531 257.71875 C 542.746094 227.710938 523.066406 177.382812 514.164062 126.511719 C 508.171875 99.484375 504.804688 72.421875 496.683594 45.761719 C 494.28125 36.589844 487.960938 26.09375 482.171875 16.964844 C 479.625 12.121094 482.921875 12.011719 486.339844 13.136719 C 498.503906 17.128906 510.128906 20.808594 522.636719 24.460938 C 600.457031 43.933594 664.003906 91.769531 684.867188 171.445312 C 693.445312 200.296875 695.078125 233.40625 696.503906 270.992188 C 696.949219 296.855469 696.03125 331.402344 693.4375 359.992188 C 693.003906 364.378906 693.121094 369.6875 687.902344 369.644531 C 684.210938 369.460938 678.652344 368.757812 676.515625 365.183594 Z M 676.066406 364.214844 " fill-opacity="1" fill-rule="nonzero"/></g></g></g><g clip-path="url(#a188554ccb)"><g clip-path="url(#2b96fb1ec1)"><g clip-path="url(#0ccfc4bc7c)"><path fill="#4bab13" d="M 685.980469 301.113281 C 688.898438 273.550781 692.628906 248.429688 700.136719 222.910156 C 709.039062 187.136719 736.714844 158.640625 772.824219 152.160156 C 789.097656 148.800781 810.585938 150.078125 827.753906 149.019531 C 829.632812 149.007812 830.976562 148.769531 832.921875 148.789062 C 833.507812 148.808594 833.894531 148.910156 834.023438 149.125 C 834.039062 150.375 831.898438 151.546875 830.773438 152.722656 C 818.367188 164.535156 814.980469 176.054688 807.808594 190.265625 C 797.390625 213.535156 786.5625 233.113281 770.4375 245.515625 C 759.339844 255.351562 721.910156 272.46875 714.046875 251.996094 C 711.9375 237.613281 730.410156 214.867188 740.214844 204.582031 C 741.519531 203.167969 749.957031 194.589844 744.058594 199.203125 C 733.554688 207.570312 723.636719 219.019531 717.125 230.273438 C 709.40625 243.734375 703.101562 264.308594 697.824219 292.523438 C 696.980469 297.816406 696.101562 304.960938 689.390625 303.972656 C 687.839844 304.003906 686.382812 302.953125 686.160156 301.898438 Z M 685.980469 301.113281 " fill-opacity="1" fill-rule="nonzero"/></g></g></g><g transform="matrix(1, 0, 0, 1, 0, 221)"><g clip-path="url(#079865319f)"><g fill="#23460f" fill-opacity="1"><g transform="translate(-5.892662, 147.100262)"><g><path d="M 9.796875 -134.8125 L 58.984375 -134.8125 C 72.710938 -134.8125 83.820312 -131.269531 92.3125 -124.1875 C 100.8125 -117.101562 105.0625 -106.804688 105.0625 -93.296875 C 105.0625 -79.796875 100.757812 -69.203125 92.15625 -61.515625 C 83.550781 -53.835938 72.492188 -50 58.984375 -50 L 40.53125 -50 L 40.53125 0 L 9.796875 0 Z M 40.53125 -74.515625 L 49.1875 -74.515625 C 56.050781 -74.515625 61.6875 -75.898438 66.09375 -78.671875 C 70.507812 -81.453125 72.71875 -86.003906 72.71875 -92.328125 C 72.71875 -98.753906 70.507812 -103.351562 66.09375 -106.125 C 61.6875 -108.90625 56.050781 -110.296875 49.1875 -110.296875 L 40.53125 -110.296875 Z M 40.53125 -74.515625 "/></g></g></g><g fill="#23460f" fill-opacity="1"><g transform="translate(99.340292, 147.100262)"><g><path d="M 9.796875 0 L 9.796875 -140.53125 L 38.734375 -140.53125 L 38.734375 0 Z M 9.796875 0 "/></g></g></g><g fill="#23460f" fill-opacity="1"><g transform="translate(144.276593, 147.100262)"><g><path d="M 15.515625 -10.375 C 7.679688 -18.925781 3.765625 -29.410156 3.765625 -41.828125 C 3.765625 -54.242188 7.679688 -64.753906 15.515625 -73.359375 C 23.359375 -81.972656 33.328125 -86.28125 45.421875 -86.28125 C 56.535156 -86.28125 65.6875 -82.796875 72.875 -75.828125 L 72.875 -83.828125 L 101.796875 -83.828125 L 101.796875 0 L 73.203125 0 L 73.203125 -9.484375 L 72.875 -9.484375 C 65.6875 -1.523438 56.535156 2.453125 45.421875 2.453125 C 33.328125 2.453125 23.359375 -1.820312 15.515625 -10.375 Z M 40.109375 -56.046875 C 36.359375 -52.347656 34.484375 -47.609375 34.484375 -41.828125 C 34.484375 -36.054688 36.28125 -31.34375 39.875 -27.6875 C 43.46875 -24.039062 48.207031 -22.21875 54.09375 -22.21875 C 59.75 -22.21875 64.398438 -24.066406 68.046875 -27.765625 C 71.703125 -31.472656 73.53125 -36.160156 73.53125 -41.828125 C 73.53125 -47.609375 71.648438 -52.347656 67.890625 -56.046875 C 64.128906 -59.753906 59.53125 -61.609375 54.09375 -61.609375 C 48.53125 -61.609375 43.867188 -59.753906 40.109375 -56.046875 Z M 40.109375 -56.046875 "/></g></g></g><g fill="#23460f" fill-opacity="1"><g transform="translate(252.287446, 147.100262)"><g><path d="M 9.796875 0 L 9.796875 -83.828125 L 38.734375 -83.828125 L 38.734375 -75 L 39.046875 -75 C 46.566406 -82.519531 54.578125 -86.28125 63.078125 -86.28125 C 67.210938 -86.28125 71.320312 -85.734375 75.40625 -84.640625 C 79.5 -83.554688 83.421875 -81.867188 87.171875 -79.578125 C 90.929688 -77.285156 93.984375 -74.039062 96.328125 -69.84375 C 98.671875 -65.65625 99.84375 -60.785156 99.84375 -55.234375 L 99.84375 0 L 70.921875 0 L 70.921875 -47.390625 C 70.921875 -51.742188 69.53125 -55.554688 66.75 -58.828125 C 63.96875 -62.097656 60.347656 -63.734375 55.890625 -63.734375 C 51.523438 -63.734375 47.570312 -62.039062 44.03125 -58.65625 C 40.5 -55.28125 38.734375 -51.523438 38.734375 -47.390625 L 38.734375 0 Z M 9.796875 0 "/></g></g></g><g fill="#23460f" fill-opacity="1"><g transform="translate(356.703365, 147.100262)"><g><path d="M 14.703125 -83.828125 L 14.703125 -115.03125 L 43.625 -115.03125 L 43.625 -83.828125 L 61.28125 -83.828125 L 61.28125 -61.765625 L 43.625 -61.765625 L 43.625 -35.125 C 43.625 -27.394531 45.804688 -23.53125 50.171875 -23.53125 C 51.253906 -23.53125 52.394531 -23.75 53.59375 -24.1875 C 54.789062 -24.625 55.71875 -25.054688 56.375 -25.484375 L 57.359375 -26.140625 L 64.546875 -2.78125 C 58.335938 0.707031 51.253906 2.453125 43.296875 2.453125 C 37.847656 2.453125 33.160156 1.5 29.234375 -0.40625 C 25.316406 -2.3125 22.351562 -4.867188 20.34375 -8.078125 C 18.332031 -11.296875 16.890625 -14.675781 16.015625 -18.21875 C 15.140625 -21.757812 14.703125 -25.546875 14.703125 -29.578125 L 14.703125 -61.765625 L 2.609375 -61.765625 L 2.609375 -83.828125 Z M 14.703125 -83.828125 "/></g></g></g><g fill="#23460f" fill-opacity="1"><g transform="translate(417.653418, 147.100262)"><g><path d="M 94.609375 -37.90625 L 33.828125 -37.90625 C 33.828125 -32.03125 35.734375 -27.675781 39.546875 -24.84375 C 43.359375 -22.007812 47.5 -20.59375 51.96875 -20.59375 C 56.644531 -20.59375 60.34375 -21.21875 63.0625 -22.46875 C 65.789062 -23.71875 68.898438 -26.195312 72.390625 -29.90625 L 93.3125 -19.453125 C 84.59375 -4.847656 70.101562 2.453125 49.84375 2.453125 C 37.207031 2.453125 26.367188 -1.875 17.328125 -10.53125 C 8.285156 -19.195312 3.765625 -29.628906 3.765625 -41.828125 C 3.765625 -54.035156 8.285156 -64.492188 17.328125 -73.203125 C 26.367188 -81.921875 37.207031 -86.28125 49.84375 -86.28125 C 63.132812 -86.28125 73.945312 -82.4375 82.28125 -74.75 C 90.613281 -67.070312 94.78125 -56.097656 94.78125 -41.828125 C 94.78125 -39.867188 94.722656 -38.5625 94.609375 -37.90625 Z M 34.640625 -53.921875 L 66.5 -53.921875 C 65.851562 -58.273438 64.140625 -61.625 61.359375 -63.96875 C 58.578125 -66.3125 55.007812 -67.484375 50.65625 -67.484375 C 45.863281 -67.484375 42.050781 -66.226562 39.21875 -63.71875 C 36.382812 -61.21875 34.859375 -57.953125 34.640625 -53.921875 Z M 34.640625 -53.921875 "/></g></g></g><g fill="#23460f" fill-opacity="1"><g transform="translate(512.591838, 147.100262)"><g><path d="M 15.515625 -10.375 C 7.679688 -18.925781 3.765625 -29.410156 3.765625 -41.828125 C 3.765625 -54.242188 7.679688 -64.753906 15.515625 -73.359375 C 23.359375 -81.972656 33.328125 -86.28125 45.421875 -86.28125 C 56.535156 -86.28125 65.6875 -82.796875 72.875 -75.828125 L 72.875 -140.53125 L 101.796875 -140.53125 L 101.796875 0 L 73.203125 0 L 73.203125 -9.484375 L 72.875 -9.484375 C 65.6875 -1.523438 56.535156 2.453125 45.421875 2.453125 C 33.328125 2.453125 23.359375 -1.820312 15.515625 -10.375 Z M 40.109375 -56.046875 C 36.359375 -52.347656 34.484375 -47.609375 34.484375 -41.828125 C 34.484375 -36.054688 36.28125 -31.34375 39.875 -27.6875 C 43.46875 -24.039062 48.207031 -22.21875 54.09375 -22.21875 C 59.75 -22.21875 64.398438 -24.066406 68.046875 -27.765625 C 71.703125 -31.472656 73.53125 -36.160156 73.53125 -41.828125 C 73.53125 -47.609375 71.648438 -52.347656 67.890625 -56.046875 C 64.128906 -59.753906 59.53125 -61.609375 54.09375 -61.609375 C 48.53125 -61.609375 43.867188 -59.753906 40.109375 -56.046875 Z M 40.109375 -56.046875 "/></g></g></g><g fill="#23460f" fill-opacity="1"><g transform="translate(620.60539, 147.100262)"><g/></g></g><g fill="#23460f" fill-opacity="1"><g transform="translate(661.619963, 147.100262)"><g/></g></g><g fill="#23460f" fill-opacity="1"><g transform="translate(702.634536, 147.100262)"><g/></g></g><g fill="#23460f" fill-opacity="1"><g transform="translate(743.654841, 147.100262)"><g><path d="M 1.3125 -107.84375 L 1.3125 -134.8125 L 96.078125 -134.8125 L 96.078125 -107.84375 L 64.0625 -107.84375 L 64.0625 0 L 33.328125 0 L 33.328125 -107.84375 Z M 1.3125 -107.84375 "/></g></g></g><g fill="#23460f" fill-opacity="1"><g transform="translate(837.449408, 147.100262)"><g><path d="M 15.515625 -10.375 C 7.679688 -18.925781 3.765625 -29.410156 3.765625 -41.828125 C 3.765625 -54.242188 7.679688 -64.753906 15.515625 -73.359375 C 23.359375 -81.972656 33.328125 -86.28125 45.421875 -86.28125 C 56.535156 -86.28125 65.6875 -82.796875 72.875 -75.828125 L 72.875 -83.828125 L 101.796875 -83.828125 L 101.796875 0 L 73.203125 0 L 73.203125 -9.484375 L 72.875 -9.484375 C 65.6875 -1.523438 56.535156 2.453125 45.421875 2.453125 C 33.328125 2.453125 23.359375 -1.820312 15.515625 -10.375 Z M 40.109375 -56.046875 C 36.359375 -52.347656 34.484375 -47.609375 34.484375 -41.828125 C 34.484375 -36.054688 36.28125 -31.34375 39.875 -27.6875 C 43.46875 -24.039062 48.207031 -22.21875 54.09375 -22.21875 C 59.75 -22.21875 64.398438 -24.066406 68.046875 -27.765625 C 71.703125 -31.472656 73.53125 -36.160156 73.53125 -41.828125 C 73.53125 -47.609375 71.648438 -52.347656 67.890625 -56.046875 C 64.128906 -59.753906 59.53125 -61.609375 54.09375 -61.609375 C 48.53125 -61.609375 43.867188 -59.753906 40.109375 -56.046875 Z M 40.109375 -56.046875 "/></g></g></g><g fill="#23460f" fill-opacity="1"><g transform="translate(945.460261, 147.100262)"><g><path d="M 9.796875 0 L 9.796875 -83.828125 L 38.734375 -83.828125 L 38.734375 -75 L 39.046875 -75 C 46.566406 -82.519531 54.578125 -86.28125 63.078125 -86.28125 C 67.210938 -86.28125 71.320312 -85.734375 75.40625 -84.640625 C 79.5 -83.554688 83.421875 -81.867188 87.171875 -79.578125 C 90.929688 -77.285156 93.984375 -74.039062 96.328125 -69.84375 C 98.671875 -65.65625 99.84375 -60.785156 99.84375 -55.234375 L 99.84375 0 L 70.921875 0 L 70.921875 -47.390625 C 70.921875 -51.742188 69.53125 -55.554688 66.75 -58.828125 C 63.96875 -62.097656 60.347656 -63.734375 55.890625 -63.734375 C 51.523438 -63.734375 47.570312 -62.039062 44.03125 -58.65625 C 40.5 -55.28125 38.734375 -51.523438 38.734375 -47.390625 L 38.734375 0 Z M 9.796875 0 "/></g></g></g><g fill="#23460f" fill-opacity="1"><g transform="translate(1049.876181, 147.100262)"><g><path d="M 105.5625 -83.828125 L 65.6875 -43.796875 L 109.484375 0 L 72.21875 0 L 38.734375 -33.5 L 38.734375 0 L 9.796875 0 L 9.796875 -140.53125 L 38.734375 -140.53125 L 38.734375 -54.578125 L 67.984375 -83.828125 Z M 105.5625 -83.828125 "/></g></g></g><g fill="#23460f" fill-opacity="1"><g transform="translate(1151.841045, 147.100262)"><g/></g></g><g fill="#23460f" fill-opacity="1"><g transform="translate(1192.855618, 147.100262)"><g><path d="M 40.53125 -134.8125 L 40.53125 -26.96875 L 86.9375 -26.96875 L 86.9375 0 L 9.796875 0 L 9.796875 -134.8125 Z M 40.53125 -134.8125 "/></g></g></g><g fill="#23460f" fill-opacity="1"><g transform="translate(1281.584605, 147.100262)"><g><path d="M 15.515625 -10.375 C 7.679688 -18.925781 3.765625 -29.410156 3.765625 -41.828125 C 3.765625 -54.242188 7.679688 -64.753906 15.515625 -73.359375 C 23.359375 -81.972656 33.328125 -86.28125 45.421875 -86.28125 C 56.535156 -86.28125 65.6875 -82.796875 72.875 -75.828125 L 72.875 -83.828125 L 101.796875 -83.828125 L 101.796875 0 L 73.203125 0 L 73.203125 -9.484375 L 72.875 -9.484375 C 65.6875 -1.523438 56.535156 2.453125 45.421875 2.453125 C 33.328125 2.453125 23.359375 -1.820312 15.515625 -10.375 Z M 40.109375 -56.046875 C 36.359375 -52.347656 34.484375 -47.609375 34.484375 -41.828125 C 34.484375 -36.054688 36.28125 -31.34375 39.875 -27.6875 C 43.46875 -24.039062 48.207031 -22.21875 54.09375 -22.21875 C 59.75 -22.21875 64.398438 -24.066406 68.046875 -27.765625 C 71.703125 -31.472656 73.53125 -36.160156 73.53125 -41.828125 C 73.53125 -47.609375 71.648438 -52.347656 67.890625 -56.046875 C 64.128906 -59.753906 59.53125 -61.609375 54.09375 -61.609375 C 48.53125 -61.609375 43.867188 -59.753906 40.109375 -56.046875 Z M 40.109375 -56.046875 "/></g></g></g><g fill="#23460f" fill-opacity="1"><g transform="translate(1389.595434, 147.100262)"><g><path d="M 96.078125 -73.359375 C 103.921875 -64.753906 107.84375 -54.242188 107.84375 -41.828125 C 107.84375 -29.410156 103.921875 -18.925781 96.078125 -10.375 C 88.234375 -1.820312 78.265625 2.453125 66.171875 2.453125 C 55.066406 2.453125 45.921875 -1.523438 38.734375 -9.484375 L 38.40625 -9.484375 L 38.40625 0 L 9.796875 0 L 9.796875 -140.53125 L 38.734375 -140.53125 L 38.734375 -75.828125 C 45.921875 -82.796875 55.066406 -86.28125 66.171875 -86.28125 C 78.265625 -86.28125 88.234375 -81.972656 96.078125 -73.359375 Z M 71.734375 -27.6875 C 75.328125 -31.34375 77.125 -36.054688 77.125 -41.828125 C 77.125 -47.609375 75.242188 -52.347656 71.484375 -56.046875 C 67.734375 -59.753906 63.078125 -61.609375 57.515625 -61.609375 C 52.066406 -61.609375 47.460938 -59.753906 43.703125 -56.046875 C 39.953125 -52.347656 38.078125 -47.609375 38.078125 -41.828125 C 38.078125 -36.160156 39.898438 -31.472656 43.546875 -27.765625 C 47.191406 -24.066406 51.847656 -22.21875 57.515625 -22.21875 C 63.398438 -22.21875 68.140625 -24.039062 71.734375 -27.6875 Z M 71.734375 -27.6875 "/></g></g></g></g></g></svg>