<svg xmlns="http://www.w3.org/2000/svg" xmlns:xlink="http://www.w3.org/1999/xlink" width="500" zoomAndPan="magnify" viewBox="0 0 375 374.999991" height="500" preserveAspectRatio="xMidYMid meet" version="1.0"><defs><clipPath id="c78ab80efe"><path d="M 116 4.433594 L 209 4.433594 L 209 365 L 116 365 Z M 116 4.433594 " clip-rule="nonzero"/></clipPath></defs><path fill="#699641" d="M 168.519531 280.015625 C 164.757812 296.519531 162.839844 325.910156 156.019531 341.457031 C 144.660156 332.191406 146.769531 323.304688 138.160156 311.914062 C 133.527344 305.792969 127.304688 293.671875 123.652344 287.058594 C 119.277344 279.113281 122.269531 270 124.652344 261.710938 C 127.035156 253.417969 128.285156 243.410156 121.605469 236.84375 C 116.179688 231.488281 107.320312 230.382812 101.207031 225.703125 C 92.519531 219.046875 91.804688 207.503906 92.320312 197.527344 C 92.839844 187.546875 93.410156 176.390625 86.070312 168.535156 C 76.972656 158.871094 59.019531 157.886719 52.402344 146.820312 C 50.914062 144.164062 50.046875 141.320312 49.792969 138.289062 C 48.902344 129.933594 51 121.507812 49.007812 113.296875 C 47.285156 106.15625 42.632812 99.757812 39.292969 93 C 36.691406 87.800781 34.910156 82.332031 33.949219 76.597656 C 32.988281 70.863281 32.886719 65.117188 33.652344 59.351562 C 37.730469 66.574219 36.382812 74.988281 38.019531 82.851562 C 40.644531 95.519531 51 106.246094 62.785156 113.902344 C 74.570312 121.5625 87.945312 126.765625 100.554688 133.199219 C 105.410156 135.683594 110.445312 138.644531 113.054688 143.019531 C 113.316406 143.457031 113.550781 143.90625 113.769531 144.367188 C 115.277344 147.660156 115.222656 151.292969 114.820312 154.746094 C 113.035156 170.035156 105.207031 185.683594 111.992188 200.203125 C 115.25 207.183594 121.5 212.699219 127.792969 217.832031 C 133.699219 222.59375 139.792969 227.171875 146.082031 231.578125 L 148.757812 233.414062 C 155.304688 237.878906 162.257812 242.339844 166.347656 248.714844 C 172.429688 258.15625 170.882812 269.660156 168.519531 280.015625 Z M 168.519531 280.015625 " fill-opacity="1" fill-rule="nonzero"/><path fill="#000000" d="M 158.75 295.25 C 151.179688 291.796875 143.292969 287.824219 138.882812 280.773438 C 129.910156 266.402344 138.980469 245.5625 129.332031 231.640625 C 126.410156 227.425781 122.089844 224.417969 118.207031 221.070312 C 112.027344 215.714844 106.6875 209.210938 103.917969 201.550781 C 97.957031 185.15625 104.132812 165.503906 95.507812 150.335938 C 89.625 139.984375 76.820312 132.488281 66.570312 130.976562 C 78.589844 135.21875 85.5 139.191406 91.152344 147.667969 C 96.804688 156.148438 99.402344 166.414062 99.769531 176.578125 C 99.9375 181.355469 99.644531 186.15625 100.089844 190.914062 C 100.359375 193.667969 100.871094 196.375 101.621094 199.039062 C 102.375 201.699219 103.355469 204.273438 104.566406 206.761719 C 105.777344 209.25 107.199219 211.613281 108.832031 213.847656 C 110.464844 216.082031 112.285156 218.152344 114.285156 220.0625 C 118.054688 223.632812 122.4375 226.585938 125.6875 230.640625 C 137.6875 245.632812 130.207031 269.6875 141.507812 285.210938 C 142.519531 286.589844 143.652344 287.863281 144.90625 289.023438 C 146.164062 290.1875 147.515625 291.222656 148.96875 292.125 C 150.421875 293.027344 151.949219 293.785156 153.546875 294.398438 C 155.144531 295.007812 156.789062 295.464844 158.472656 295.757812 " fill-opacity="0.1" fill-rule="nonzero"/><path fill="#000000" d="M 148.957031 240.921875 L 122.480469 215.824219 C 117.945312 211.523438 113.292969 207.058594 110.832031 201.328125 C 106.855469 192.074219 109.285156 181.503906 110.902344 171.554688 C 112.433594 162.09375 113.160156 152.574219 113.082031 142.992188 C 113.339844 143.429688 113.578125 143.878906 113.792969 144.339844 C 115.304688 147.632812 115.25 151.265625 114.847656 154.71875 C 113.0625 170.007812 105.230469 185.65625 112.019531 200.175781 C 115.277344 207.15625 121.527344 212.671875 127.820312 217.804688 C 133.726562 222.566406 139.820312 227.148438 146.105469 231.550781 C 147.042969 234.683594 148 237.796875 148.957031 240.921875 Z M 148.957031 240.921875 " fill-opacity="0.08" fill-rule="nonzero"/><path fill="#699641" d="M 228.394531 128.015625 C 219.285156 146.132812 209.9375 166.476562 215.570312 185.949219 C 218.527344 196.179688 225.320312 204.78125 230.160156 214.261719 C 231.507812 216.953125 232.695312 219.710938 233.734375 222.539062 C 234.769531 225.363281 235.640625 228.238281 236.355469 231.164062 C 237.066406 234.085938 237.613281 237.042969 237.992188 240.027344 C 238.375 243.011719 238.585938 246.011719 238.628906 249.019531 C 238.671875 252.027344 238.546875 255.03125 238.25 258.027344 C 237.957031 261.019531 237.496094 263.988281 236.867188 266.933594 C 236.238281 269.875 235.449219 272.773438 234.492188 275.628906 C 233.539062 278.484375 232.429688 281.277344 231.160156 284.003906 C 226.394531 294.054688 219.554688 302.972656 212.679688 311.671875 C 205.117188 321.269531 197.230469 330.917969 187.019531 337.621094 L 186.382812 337.523438 C 190.011719 333.402344 193.285156 329.019531 196.203125 324.371094 C 199.121094 319.722656 201.648438 314.871094 203.785156 309.816406 C 205.917969 304.757812 207.636719 299.566406 208.929688 294.230469 C 210.226562 288.898438 211.085938 283.496094 211.507812 278.023438 C 212.0625 270.570312 211.722656 262.851562 208.445312 256.09375 C 204.542969 248.105469 196.902344 242.476562 192.75 234.613281 C 187.25 224.214844 188.644531 211.546875 191.617188 200.160156 C 193.5 192.929688 195.992188 185.523438 194.714844 178.160156 C 193.742188 172.570312 190.667969 167.582031 189.019531 162.164062 C 188.109375 159.167969 187.621094 156.101562 187.554688 152.972656 C 187.515625 149.515625 187.863281 146.101562 188.601562 142.726562 C 189.339844 139.351562 190.449219 136.101562 191.929688 132.976562 C 196.117188 123.890625 202.644531 116.089844 209.667969 108.960938 C 211.304688 107.300781 213.019531 105.59375 213.792969 103.40625 C 215.089844 99.765625 213.519531 95.8125 212.492188 92.089844 C 211.347656 87.832031 210.949219 83.507812 211.292969 79.113281 C 211.484375 76.535156 211.914062 74 212.589844 71.503906 C 213.265625 69.011719 214.175781 66.601562 215.3125 64.28125 C 216.453125 61.964844 217.800781 59.773438 219.363281 57.710938 C 220.921875 55.652344 222.664062 53.757812 224.589844 52.03125 C 228.242188 48.847656 232.582031 46.222656 235.089844 42.074219 C 238.660156 36.144531 237.382812 27.917969 232.589844 22.9375 C 235.773438 23.464844 238.726562 24.59375 241.445312 26.328125 C 250.972656 32.324219 256.625 44.679688 256.695312 56.351562 C 256.742188 71.292969 249.875 85.28125 243.160156 98.632812 C 240.964844 103.019531 238.761719 107.402344 236.554688 111.78125 Z M 228.394531 128.015625 " fill-opacity="1" fill-rule="nonzero"/><path fill="#000000" d="M 221.75 293.726562 C 227.304688 282.292969 226.9375 268.9375 225.394531 256.328125 C 223.929688 244.375 221.394531 232.273438 215.117188 222 C 212.042969 216.976562 208.117188 212.476562 205.339844 207.28125 C 201.292969 199.714844 199.875 191.003906 199.519531 182.433594 C 199.277344 176.226562 199.558594 170.042969 200.359375 163.882812 C 201.15625 157.71875 202.464844 151.667969 204.28125 145.730469 C 206.101562 139.789062 208.398438 134.039062 211.183594 128.488281 C 213.96875 122.933594 217.195312 117.648438 220.867188 112.636719 C 225.894531 105.816406 231.902344 99.1875 233.542969 90.867188 C 234.777344 84.621094 233.394531 78.273438 232.894531 71.964844 C 232.394531 65.652344 233.042969 58.683594 237.417969 54.113281 C 230.839844 66.144531 237.417969 81.351562 234.1875 94.667969 C 231.917969 103.953125 225.132812 111.316406 219.542969 119.070312 C 203.285156 141.664062 196.332031 171.832031 205.320312 198.160156 C 210.25 212.53125 219.519531 225.050781 225.042969 239.21875 C 226.859375 243.914062 228.25 248.738281 229.210938 253.679688 C 230.175781 258.625 230.699219 263.613281 230.785156 268.652344 C 230.867188 273.6875 230.511719 278.691406 229.710938 283.664062 C 228.914062 288.636719 227.683594 293.503906 226.027344 298.257812 L 222.160156 293.957031 " fill-opacity="0.1" fill-rule="nonzero"/><path fill="#7db254" d="M 182.5625 352.925781 L 183.320312 353.335938 C 183.597656 354.007812 183.902344 354.675781 184.214844 355.335938 Z M 182.5625 352.925781 " fill-opacity="1" fill-rule="nonzero"/><path fill="#7db254" d="M 310.644531 102.675781 C 310.507812 111.128906 312.875 119.917969 309.882812 127.828125 C 306.597656 136.503906 297.867188 141.609375 291.132812 148.015625 C 273.929688 164.449219 269.804688 191.003906 274.464844 214.332031 C 276.207031 223.042969 279.019531 231.605469 279.464844 240.484375 C 279.695312 245.265625 279.230469 249.980469 278.0625 254.621094 C 277.410156 257.269531 276.546875 259.847656 275.472656 262.355469 C 274.398438 264.863281 273.132812 267.265625 271.667969 269.566406 C 270.203125 271.867188 268.5625 274.035156 266.746094 276.070312 C 264.929688 278.105469 262.960938 279.980469 260.839844 281.691406 C 254.132812 287.046875 246.167969 290.519531 239.019531 295.242188 C 233.375 298.976562 228.339844 303.402344 223.910156 308.515625 C 219.148438 313.996094 215.242188 320.03125 212.195312 326.625 C 209.4375 332.554688 207.5 338.742188 206.382812 345.1875 C 205.882812 348.132812 205.492188 351.25 203.707031 353.613281 C 201.355469 356.667969 197.082031 357.703125 193.257812 357.183594 C 189.730469 356.675781 186.480469 355.050781 183.332031 353.363281 C 180.910156 347.636719 179.171875 341.710938 178.117188 335.582031 C 177.0625 329.457031 176.714844 323.289062 177.082031 317.082031 C 177.5625 309.246094 179.257812 301.320312 183.332031 294.636719 C 185.335938 291.460938 187.71875 288.59375 190.472656 286.039062 C 197.785156 279.085938 207.125 273.792969 214.667969 267.171875 C 215.5625 266.378906 216.457031 265.566406 217.304688 264.726562 C 220.742188 261.449219 223.445312 257.652344 225.410156 253.328125 C 232.027344 238.207031 225.207031 221.035156 221.339844 204.988281 C 217.769531 190.261719 216.875 174.640625 220.722656 160.023438 C 224.570312 145.402344 233.707031 131.800781 246.894531 124.320312 C 253.042969 120.847656 259.867188 118.777344 266.535156 116.339844 C 275.402344 113.09375 284.394531 108.796875 290.910156 102.195312 C 292.957031 100.128906 294.714844 97.84375 296.179688 95.332031 C 297.757812 92.589844 298.929688 89.609375 300.867188 87.117188 C 305.722656 80.871094 315.410156 79.148438 322.292969 82.996094 C 322.921875 83.34375 323.515625 83.742188 324.082031 84.183594 C 315.582031 84.21875 310.777344 94.234375 310.644531 102.675781 Z M 310.644531 102.675781 " fill-opacity="1" fill-rule="nonzero"/><path fill="#7db254" d="M 162.769531 355.097656 L 162.660156 355.738281 C 163.226562 355.957031 163.710938 356.292969 164.117188 356.742188 C 164.519531 357.195312 164.800781 357.714844 164.957031 358.300781 C 159.25 359.890625 153.464844 361.488281 147.542969 361.476562 C 146.347656 361.480469 145.160156 361.40625 143.972656 361.253906 C 139.230469 360.648438 134.625 358.792969 131.394531 355.328125 C 126.644531 350.230469 125.402344 342.394531 120.042969 337.941406 C 115.429688 334.101562 108.910156 333.746094 102.910156 333.84375 L 101.320312 333.84375 C 92.152344 334.078125 82.9375 334.863281 73.832031 334.113281 C 72.125 333.96875 70.410156 333.773438 68.707031 333.515625 C 67.1875 333.273438 65.660156 332.96875 64.152344 332.621094 C 54.464844 330.285156 45.230469 325.160156 40.179688 316.671875 C 31.992188 302.917969 36.957031 285.433594 41.855469 270.207031 C 42.75 267.402344 43.644531 264.253906 42.292969 261.628906 C 40.417969 257.933594 35.507812 257.425781 31.5 256.371094 C 17.492188 252.6875 9.292969 237.378906 8.4375 222.929688 C 8.382812 222.035156 8.355469 221.144531 8.339844 220.304688 C 8.132812 206.765625 12.457031 193.527344 15.480469 180.246094 C 16.820312 174.402344 17.882812 168.089844 15.582031 162.546875 C 12.332031 154.710938 3.230469 150.507812 0.0195312 142.660156 C 3.019531 148.089844 9.464844 150.3125 15.695312 151.375 C 16.339844 151.488281 16.972656 151.585938 17.605469 151.667969 C 24.382812 152.613281 31.769531 153.210938 36.855469 157.78125 C 41.945312 162.351562 43.382812 169.875 43.957031 176.785156 C 44.355469 181.632812 44.511719 186.492188 44.417969 191.359375 C 44.417969 193.285156 44.347656 195.285156 44.417969 197.304688 C 44.582031 204.558594 45.742188 211.894531 51.5625 215.734375 C 52.933594 216.640625 54.421875 217.269531 56.027344 217.625 C 65.457031 219.734375 77.167969 212.851562 86.535156 216.992188 C 92.3125 219.546875 95.695312 225.917969 96.214844 232.210938 C 96.730469 238.503906 94.839844 244.707031 92.519531 250.605469 C 90.945312 254.605469 89.152344 258.578125 88.542969 262.832031 C 87.9375 267.089844 88.707031 271.757812 91.6875 274.890625 C 94.992188 278.335938 100.277344 279.105469 105.019531 278.460938 C 109.757812 277.820312 114.292969 276.140625 119.019531 275.382812 C 121.925781 274.925781 124.839844 274.847656 127.769531 275.152344 C 129.0625 275.285156 130.351562 275.488281 131.625 275.757812 C 135.132812 276.554688 138.488281 277.777344 141.6875 279.417969 C 144.886719 281.0625 147.832031 283.074219 150.527344 285.460938 C 155.738281 289.96875 159.777344 295.355469 162.644531 301.625 C 168.894531 315.414062 168.894531 331.195312 165.367188 346.027344 C 164.632812 349.125 163.757812 352.105469 162.769531 355.097656 Z M 162.769531 355.097656 " fill-opacity="1" fill-rule="nonzero"/><path fill="#000000" d="M 187.347656 345.574219 C 213.242188 332.515625 231.339844 307.691406 243.839844 281.542969 C 250.757812 267.066406 256.339844 250.675781 252.125 235.199219 C 249.355469 225.050781 242.617188 216.386719 239.535156 206.328125 C 237.105469 198.390625 237.0625 189.859375 238.4375 181.675781 C 240.152344 171.4375 244.222656 161.34375 251.507812 153.945312 C 259.035156 146.285156 269.367188 142.089844 278.027344 135.769531 C 284.230469 131.257812 289.472656 125.820312 293.75 119.457031 C 290.429688 130.683594 279.652344 137.761719 269.570312 143.707031 C 259.492188 149.652344 248.5625 156.265625 244.507812 167.242188 C 242.722656 172.027344 242.492188 177.210938 242.285156 182.308594 C 241.902344 191.886719 241.707031 201.773438 245.152344 210.71875 C 247.882812 217.789062 252.769531 223.929688 254.972656 231.183594 C 257.382812 239.28125 256.1875 248.007812 254.082031 256.175781 C 250.757812 268.886719 245.257812 280.925781 239.035156 292.5 C 227.632812 313.726562 212.25 334.789062 189.570312 342.921875 " fill-opacity="0.1" fill-rule="nonzero"/><path fill="#000000" d="M 165.957031 350.542969 C 161.269531 342.457031 150 325.328125 144.464844 319.082031 C 138.929688 312.835938 129.9375 307.433594 121.480469 306.53125 C 114.417969 305.773438 102.972656 306.738281 95.882812 307.203125 C 86.402344 307.828125 76.597656 304.882812 69.464844 298.605469 C 62.332031 292.332031 58.082031 282.675781 58.929688 273.214844 C 59.347656 268.636719 60.882812 264.242188 61.605469 259.699219 C 62.332031 255.15625 62.042969 250.160156 59.277344 246.492188 C 55.332031 241.289062 47.894531 240.511719 42.3125 237.101562 C 32.917969 231.328125 30.152344 218.972656 29.902344 207.953125 C 29.652344 196.929688 30.9375 185.378906 26.332031 175.347656 C 31.195312 184.128906 31.105469 194.679688 31.6875 204.703125 C 32.269531 214.726562 34.117188 225.578125 41.507812 232.371094 C 48.410156 238.699219 59.429688 240.761719 63.570312 249.152344 C 67.5625 257.238281 63.035156 266.742188 62.757812 275.75 C 62.738281 277.050781 62.804688 278.347656 62.960938 279.636719 C 63.117188 280.929688 63.359375 282.207031 63.691406 283.464844 C 64.023438 284.722656 64.4375 285.953125 64.9375 287.152344 C 65.4375 288.355469 66.015625 289.515625 66.675781 290.640625 C 67.335938 291.761719 68.066406 292.832031 68.875 293.855469 C 69.679688 294.875 70.550781 295.835938 71.492188 296.738281 C 72.429688 297.640625 73.425781 298.476562 74.476562 299.242188 C 75.53125 300.007812 76.628906 300.695312 77.777344 301.3125 C 95.945312 310.710938 120.132812 298.632812 137.785156 308.96875 C 144.679688 313.011719 149.394531 319.894531 153.507812 326.730469 C 158.105469 334.539062 162.273438 342.574219 166.007812 350.828125 " fill-opacity="0.1" fill-rule="nonzero"/><path fill="#000000" d="M 208.457031 269.699219 L 200.507812 255.683594 C 202.980469 258.433594 205.535156 261.136719 207.035156 264.476562 C 207.785156 266.140625 208.257812 267.882812 208.457031 269.699219 Z M 208.457031 269.699219 " fill-opacity="0.1" fill-rule="nonzero"/><path fill="#000000" d="M 164.957031 358.300781 C 159.25 359.890625 153.464844 361.488281 147.542969 361.476562 C 146.375 361.476562 133.945312 344.414062 130.207031 336.003906 C 124.5625 323.320312 122.117188 307.710938 124.769531 294.054688 C 126.117188 287.609375 128.394531 281.515625 131.605469 275.765625 C 135.113281 276.566406 138.46875 277.785156 141.667969 279.429688 C 144.871094 281.070312 147.816406 283.085938 150.507812 285.46875 C 154.867188 296.179688 157.785156 307.59375 160.457031 318.867188 C 162.5625 327.75 164.554688 336.914062 165.347656 346.035156 C 164.632812 349.097656 163.757812 352.113281 162.769531 355.070312 L 162.660156 355.710938 C 163.230469 355.933594 163.71875 356.269531 164.121094 356.726562 C 164.527344 357.183594 164.804688 357.707031 164.957031 358.300781 Z M 164.957031 358.300781 " fill-opacity="0.06" fill-rule="nonzero"/><path fill="#000000" d="M 224.457031 315.644531 L 212.214844 326.625 L 210.082031 328.535156 C 207.320312 329.425781 204.207031 328.007812 202.347656 325.777344 C 200.492188 323.542969 199.605469 320.660156 198.777344 317.867188 C 195.722656 307.324219 192.953125 296.707031 190.464844 286.011719 C 197.777344 279.058594 207.117188 273.765625 214.660156 267.144531 C 219.480469 280.546875 222.566406 294.335938 223.910156 308.515625 C 224.148438 310.886719 224.332031 313.265625 224.457031 315.644531 Z M 224.457031 315.644531 " fill-opacity="0.06" fill-rule="nonzero"/><g clip-path="url(#c78ab80efe)"><path fill="#7db254" d="M 196.070312 301.882812 C 195.183594 303.734375 194.398438 305.625 193.71875 307.5625 C 193.035156 309.496094 192.457031 311.464844 191.988281 313.460938 C 191.519531 315.460938 191.15625 317.476562 190.90625 319.515625 C 190.652344 321.550781 190.511719 323.59375 190.480469 325.648438 C 190.449219 327.699219 190.527344 329.746094 190.71875 331.789062 C 190.910156 333.835938 191.207031 335.863281 191.617188 337.871094 C 192.027344 339.882812 192.542969 341.867188 193.167969 343.824219 C 193.789062 345.777344 194.519531 347.695312 195.347656 349.570312 C 196.070312 351.175781 196.882812 352.960938 196.242188 354.605469 C 195.730469 356.023438 194.320312 356.882812 192.980469 357.578125 C 185.4375 361.535156 177.425781 363.914062 168.945312 364.71875 C 164.570312 365.121094 159.867188 364.996094 156.207031 362.574219 C 152.722656 360.265625 152.820312 358.042969 150.644531 350.667969 C 148.089844 340.554688 141.132812 333.710938 134.394531 324.785156 C 132.296875 322.109375 130.660156 319.179688 129.472656 315.992188 C 126.304688 307.023438 128.695312 297 132.589844 288.324219 C 136.480469 279.648438 141.832031 271.589844 144.945312 262.59375 C 145.945312 259.699219 146.730469 256.523438 145.722656 253.621094 C 143.777344 247.855469 136.269531 246.160156 132.644531 241.269531 C 127.882812 234.863281 131.339844 226.097656 135.320312 218.886719 C 135.617188 218.339844 135.917969 217.804688 136.214844 217.289062 C 136.894531 216.109375 137.554688 214.878906 138.179688 213.601562 C 141.507812 206.773438 143.535156 198.804688 138.777344 193.367188 C 137.507812 191.9375 135.882812 190.867188 134.554688 189.492188 C 128.519531 183.246094 130.332031 172.929688 133.847656 164.984375 C 137.367188 157.039062 142.292969 148.988281 141.230469 140.367188 C 139.660156 127.597656 126.054688 120.144531 119.667969 108.996094 C 119.09375 107.988281 118.582031 106.949219 118.132812 105.878906 C 113.667969 95.035156 117.492188 82.460938 123.492188 72.375 C 129.492188 62.289062 137.605469 53.480469 142.679688 42.921875 C 146.25 35.433594 148.429688 32.074219 152.269531 24.710938 C 156.105469 17.347656 162.855469 10.03125 170.535156 4.46875 C 170.429688 4.710938 170.3125 4.941406 170.195312 5.183594 C 165.019531 15.894531 155.910156 24.917969 153.894531 36.617188 C 151.535156 50.230469 159.402344 63.394531 167.417969 74.605469 C 175.4375 85.816406 184.382812 97.8125 184.445312 111.621094 C 184.5 119.777344 181.429688 127.578125 179.75 135.558594 C 178.070312 143.535156 178.035156 152.648438 183.269531 158.90625 C 188.144531 164.742188 196.542969 166.796875 201.1875 172.820312 C 207.042969 180.417969 204.902344 191.234375 202.492188 200.488281 L 195.582031 227.0625 C 194.496094 230.816406 193.785156 234.644531 193.445312 238.539062 C 193.1875 241.726562 193.660156 244.804688 194.867188 247.769531 C 196.152344 250.75 198.292969 253.222656 200.480469 255.65625 C 202.957031 258.40625 205.507812 261.109375 207.007812 264.449219 C 207.757812 266.113281 208.230469 267.855469 208.429688 269.671875 C 208.980469 274.492188 207.757812 279.578125 205.75 284.085938 C 203.082031 290.296875 199.035156 295.8125 196.070312 301.882812 Z M 196.070312 301.882812 " fill-opacity="1" fill-rule="nonzero"/></g><path fill="#699641" d="M 371.5 224.328125 C 372.191406 227.222656 372.613281 230.15625 372.769531 233.125 C 372.925781 236.097656 372.808594 239.054688 372.421875 242.003906 C 372.03125 244.953125 371.378906 247.84375 370.464844 250.675781 C 369.546875 253.503906 368.378906 256.226562 366.964844 258.84375 C 364.4375 263.476562 361.035156 267.769531 356.457031 270.445312 C 353.4375 272.179688 350.007812 273.125 346.980469 274.867188 C 339.964844 278.898438 336.269531 286.46875 334.535156 294.546875 C 333.824219 298.007812 333.425781 301.503906 333.332031 305.035156 C 333.167969 310.648438 333.394531 316.589844 330.652344 321.484375 C 328.691406 324.644531 326.070312 327.101562 322.785156 328.855469 C 320.738281 330.023438 318.59375 330.976562 316.355469 331.710938 C 314.117188 332.445312 311.824219 332.945312 309.484375 333.214844 C 307.140625 333.488281 304.796875 333.519531 302.449219 333.316406 C 300.101562 333.113281 297.796875 332.675781 295.535156 332.007812 C 288.464844 329.882812 280.117188 325.757812 274.5 330.515625 C 271.902344 332.730469 270.929688 336.246094 269.902344 339.503906 C 267.347656 347.75 263.527344 356.078125 256.507812 361.121094 C 250.082031 365.761719 241.8125 366.992188 233.894531 367.199219 C 217.5625 367.628906 192.285156 370.429688 183.535156 356.640625 C 183.597656 356.292969 183.667969 355.945312 183.742188 355.605469 C 186.769531 340.429688 189.367188 327.585938 194.597656 314.949219 C 199.957031 302.023438 207.472656 288.789062 219.707031 282.003906 C 227.066406 278.023438 234.785156 274.929688 242.855469 272.722656 C 248.304688 271.171875 253.839844 269.921875 259.382812 268.824219 C 268.6875 266.976562 279.820312 264.066406 282.527344 254.988281 C 284.117188 249.632812 282.0625 243.949219 282.367188 238.394531 C 283.019531 226.578125 293.820312 218.136719 304.054688 212.199219 C 306.25 210.921875 308.519531 209.683594 310.757812 208.511719 C 317.5625 205.015625 324.714844 202.222656 332.269531 201.292969 C 345.910156 199.625 360.839844 203.96875 373.070312 198.203125 C 369.632812 200.578125 368.007812 205.34375 368.152344 209.621094 C 368.332031 214.65625 370.304688 219.429688 371.5 224.328125 Z M 371.5 224.328125 " fill-opacity="1" fill-rule="nonzero"/><path fill="#699641" d="M 375 197.207031 C 374.382812 197.5625 373.75 197.890625 373.117188 198.195312 C 373.699219 197.78125 374.328125 197.449219 375 197.207031 Z M 375 197.207031 " fill-opacity="1" fill-rule="nonzero"/><path fill="#000000" d="M 184.820312 355.363281 C 199.382812 348.617188 214.730469 334.835938 224.832031 322.339844 C 234.429688 310.496094 242.570312 295.707031 257.054688 290.929688 C 264.480469 288.484375 272.617188 289.144531 280.1875 287.136719 C 282.148438 286.621094 284.046875 285.9375 285.886719 285.085938 C 287.726562 284.234375 289.480469 283.230469 291.140625 282.074219 C 292.804688 280.914062 294.355469 279.621094 295.792969 278.191406 C 297.230469 276.761719 298.53125 275.21875 299.695312 273.5625 C 305.5625 265.144531 307.375 254.570312 312.070312 245.445312 C 313.71875 242.300781 315.679688 239.363281 317.953125 236.640625 C 320.230469 233.914062 322.773438 231.460938 325.578125 229.28125 C 328.382812 227.105469 331.386719 225.246094 334.589844 223.714844 C 337.792969 222.179688 341.125 221.003906 344.582031 220.1875 C 341.640625 221.214844 338.8125 222.488281 336.09375 224.011719 C 333.378906 225.535156 330.816406 227.285156 328.40625 229.257812 C 326 231.234375 323.78125 233.402344 321.757812 235.769531 C 319.730469 238.132812 317.929688 240.65625 316.347656 243.339844 C 311.105469 252.320312 308.570312 262.761719 302.625 271.285156 C 293.597656 284.238281 277.875 290.976562 262.339844 293.714844 C 258.4375 294.402344 254.429688 294.902344 250.882812 296.644531 C 246.507812 298.792969 243.230469 302.632812 240.167969 306.460938 C 231.6875 317.214844 224.035156 328.875 213.382812 337.511719 C 205.492188 343.9375 194.6875 353.097656 184.757812 355.363281 " fill-opacity="0.1" fill-rule="nonzero"/><path fill="#000000" d="M 169.910156 357.460938 C 162.882812 336.039062 159.375 312.421875 161.929688 289.457031 C 164.304688 268.082031 170.8125 245.957031 165.144531 225.597656 C 163.625 220.144531 161.277344 215.109375 159.785156 209.636719 C 158.578125 205.132812 157.960938 200.546875 157.925781 195.882812 C 157.894531 191.21875 158.449219 186.625 159.589844 182.101562 C 160.667969 177.925781 162.269531 173.722656 161.847656 169.359375 C 161.5625 166.402344 160.367188 163.734375 159.367188 161.046875 C 156.410156 152.980469 155.039062 144.648438 155.257812 136.058594 C 155.457031 127.808594 157.042969 119.214844 154.722656 111.519531 C 153.707031 108.183594 151.992188 105.273438 150.5625 102.183594 C 144.375 88.867188 143.644531 71.722656 148.652344 57.628906 C 146.75 69.5 145.722656 82.351562 149.832031 93.332031 C 151.617188 98.050781 154.292969 102.167969 156.082031 106.851562 C 162.644531 123.542969 155.457031 133.941406 159.8125 151.765625 C 160.882812 156.148438 164.957031 170.507812 165.035156 175.125 C 165.125 179.585938 163.75 183.78125 162.894531 188.074219 C 161.285156 196.183594 161.421875 204.265625 163.304688 212.316406 C 165.035156 219.617188 168.207031 226.3125 169.554688 233.738281 C 171.179688 242.777344 169.972656 252.210938 168.792969 261.40625 C 164.667969 293.414062 161.042969 327.113281 169.902344 357.53125 " fill-opacity="0.1" fill-rule="nonzero"/><path fill="#000000" d="M 202.519531 200.515625 L 195.605469 227.085938 C 194.523438 230.84375 193.8125 234.671875 193.472656 238.566406 C 192.222656 229.363281 195.4375 219.964844 197.25 210.734375 C 199.316406 200.175781 199.558594 189.570312 197.972656 178.925781 C 197.738281 176.621094 197.117188 174.425781 196.105469 172.339844 C 193.902344 168.277344 189.464844 166.046875 186 162.976562 C 184.558594 161.675781 183.289062 160.230469 182.1875 158.632812 C 181.082031 157.039062 180.175781 155.339844 179.46875 153.535156 C 178.761719 151.730469 178.269531 149.867188 177.992188 147.945312 C 177.71875 146.027344 177.667969 144.101562 177.839844 142.171875 C 178.402344 136.421875 180.945312 131.078125 182.304688 125.460938 C 184.882812 114.539062 182.679688 102.90625 178.089844 92.660156 C 173.5 82.414062 166.667969 73.363281 159.625 64.625 C 156.292969 60.503906 152.820312 56.253906 151.4375 51.140625 C 149.3125 43.277344 152.527344 35.019531 156.230469 27.765625 C 160.277344 19.847656 164.953125 12.320312 170.257812 5.183594 C 165.082031 15.894531 155.972656 24.917969 153.957031 36.617188 C 151.597656 50.230469 159.464844 63.394531 167.480469 74.605469 C 175.5 85.816406 184.445312 97.8125 184.507812 111.621094 C 184.5625 119.777344 181.492188 127.578125 179.8125 135.558594 C 178.132812 143.535156 178.097656 152.648438 183.332031 158.90625 C 188.207031 164.742188 196.605469 166.796875 201.25 172.820312 C 207.070312 180.417969 204.929688 191.234375 202.519531 200.515625 Z M 202.519531 200.515625 " fill-opacity="0.1" fill-rule="nonzero"/><path fill="#000000" d="M 141.257812 140.324219 C 139.6875 127.550781 126.082031 120.097656 119.695312 108.949219 C 124.457031 114.191406 129.332031 119.304688 134.320312 124.285156 C 137.402344 127.328125 140.625 130.46875 142.117188 134.539062 C 142.898438 136.8125 143.21875 139.148438 143.082031 141.546875 C 142.742188 149.738281 138.464844 157.15625 135.582031 164.839844 C 132.695312 172.527344 131.402344 181.863281 136.410156 188.359375 C 137.757812 190.144531 139.5 191.554688 140.695312 193.402344 C 144.582031 199.402344 141.679688 207.09375 138.207031 213.554688 C 141.535156 206.730469 143.5625 198.757812 138.804688 193.324219 C 137.535156 191.894531 135.910156 190.824219 134.582031 189.449219 C 128.542969 183.199219 130.355469 172.882812 133.875 164.941406 C 137.394531 156.996094 142.320312 148.945312 141.257812 140.324219 Z M 141.257812 140.324219 " fill-opacity="0.1" fill-rule="nonzero"/><path fill="#000000" d="M 148.214844 259.824219 C 143.992188 277.132812 129.070312 291.707031 130.042969 309.496094 C 130.269531 313.558594 131.582031 317.699219 134.464844 324.757812 C 132.371094 322.082031 130.730469 319.152344 129.542969 315.96875 C 126.375 306.996094 128.769531 296.972656 132.660156 288.296875 C 136.554688 279.621094 141.902344 271.5625 145.019531 262.566406 C 146.019531 259.675781 146.804688 256.496094 145.792969 253.597656 C 143.847656 247.832031 136.339844 246.132812 132.714844 241.242188 C 127.957031 234.835938 131.410156 226.070312 135.394531 218.859375 C 132.355469 224.917969 130.269531 231.78125 133.785156 237.253906 C 137.304688 242.726562 145.617188 244.5 148.160156 250.640625 C 149.304688 253.496094 148.917969 256.792969 148.214844 259.824219 Z M 148.214844 259.824219 " fill-opacity="0.1" fill-rule="nonzero"/><path fill="#000000" d="M 256.695312 56.351562 C 256.742188 71.292969 249.875 85.28125 243.160156 98.632812 C 240.964844 103.019531 238.761719 107.402344 236.554688 111.78125 C 237.367188 107.78125 239.832031 104.121094 241.910156 100.515625 C 247.917969 90.214844 251.457031 78.628906 253.582031 66.902344 C 254.171875 63.933594 254.515625 60.933594 254.605469 57.90625 C 254.679688 51.058594 252.5625 44.320312 249.375 38.269531 C 247.09375 34.050781 244.449219 30.070312 241.445312 26.328125 C 250.972656 32.324219 256.660156 44.679688 256.695312 56.351562 Z M 256.695312 56.351562 " fill-opacity="0.08" fill-rule="nonzero"/><path fill="#000000" d="M 216.605469 104.746094 C 215.992188 106.292969 215.042969 107.589844 213.757812 108.648438 C 206.527344 115.734375 199.722656 123.402344 194.742188 132.21875 C 191.007812 138.675781 188.613281 145.597656 187.554688 152.980469 C 187.515625 149.523438 187.863281 146.109375 188.601562 142.734375 C 189.339844 139.359375 190.449219 136.109375 191.929688 132.988281 C 196.117188 123.902344 202.644531 116.101562 209.667969 108.96875 C 211.304688 107.308594 213.019531 105.601562 213.792969 103.417969 C 215.089844 99.773438 213.519531 95.820312 212.492188 92.097656 C 211.347656 87.84375 210.949219 83.515625 211.292969 79.121094 C 211.550781 81.734375 212.058594 84.300781 212.8125 86.816406 L 216.214844 99.660156 C 216.660156 101.300781 217.097656 103.085938 216.605469 104.746094 Z M 216.605469 104.746094 " fill-opacity="0.08" fill-rule="nonzero"/><path fill="#000000" d="M 334.554688 294.511719 C 333.84375 297.96875 333.441406 301.464844 333.347656 304.996094 C 333.1875 310.613281 333.410156 316.554688 330.667969 321.445312 C 328.707031 324.609375 326.085938 327.066406 322.804688 328.820312 C 320.757812 329.992188 318.613281 330.945312 316.371094 331.683594 C 314.132812 332.421875 311.839844 332.929688 309.496094 333.203125 C 307.152344 333.476562 304.804688 333.511719 302.457031 333.3125 C 300.105469 333.109375 297.796875 332.675781 295.535156 332.007812 C 288.464844 329.882812 280.117188 325.757812 274.5 330.515625 C 271.902344 332.730469 270.929688 336.246094 269.902344 339.503906 C 267.347656 347.75 263.527344 356.078125 256.507812 361.121094 C 250.082031 365.761719 241.8125 366.992188 233.894531 367.199219 C 217.5625 367.628906 192.285156 370.429688 183.535156 356.640625 C 183.597656 356.292969 183.667969 355.945312 183.742188 355.605469 C 187.132812 358.792969 190.730469 361.773438 194.972656 363.636719 C 199.804688 365.742188 205.160156 366.253906 210.417969 366.421875 C 221.6875 366.789062 233.082031 365.699219 243.804688 362.199219 C 248.695312 360.613281 253.535156 358.453125 257.285156 354.933594 C 261.832031 350.667969 264.429688 344.785156 267.492188 339.371094 C 270.554688 333.953125 274.632812 328.570312 280.5625 326.613281 C 287.089844 324.464844 294.097656 326.980469 300.847656 328.222656 C 307.597656 329.460938 315.320312 329.246094 321.054688 325.25 C 328.855469 319.804688 330.875 309.371094 333.027344 300.089844 C 333.457031 298.242188 333.929688 296.367188 334.554688 294.511719 Z M 334.554688 294.511719 " fill-opacity="0.08" fill-rule="nonzero"/><path fill="#000000" d="M 310.714844 208.511719 C 304.777344 211.800781 299.386719 215.816406 294.535156 220.5625 C 289.179688 225.8125 284.445312 232.316406 283.882812 239.78125 C 283.445312 245.4375 285.4375 251.328125 283.554688 256.675781 C 281.769531 261.734375 276.902344 265.054688 272 267.242188 C 262.839844 271.3125 252.902344 272.597656 242.8125 272.722656 C 248.257812 271.171875 253.792969 269.921875 259.339844 268.824219 C 268.644531 266.976562 279.777344 264.066406 282.480469 254.988281 C 284.070312 249.632812 282.019531 243.949219 282.320312 238.394531 C 282.972656 226.578125 293.777344 218.136719 304.007812 212.199219 C 306.25 210.921875 308.472656 209.683594 310.714844 208.511719 Z M 310.714844 208.511719 " fill-opacity="0.08" fill-rule="nonzero"/><path fill="#000000" d="M 310.644531 102.675781 C 310.507812 111.128906 312.875 119.917969 309.882812 127.828125 C 306.597656 136.503906 297.867188 141.609375 291.132812 148.015625 C 273.929688 164.449219 269.804688 191.003906 274.464844 214.332031 C 276.207031 223.042969 279.019531 231.605469 279.464844 240.484375 C 279.695312 245.265625 279.230469 249.980469 278.0625 254.621094 L 278.167969 253.148438 C 278.703125 245.03125 278.109375 237 276.382812 229.050781 C 274.3125 219.5625 270.605469 210.421875 269.570312 200.765625 C 267.089844 177.300781 280.875 154.855469 298.214844 138.878906 C 301.207031 136.136719 304.410156 133.398438 306.097656 129.710938 C 307.113281 127.242188 307.667969 124.675781 307.757812 122.007812 C 308.320312 113.796875 307.035156 105.390625 309.082031 97.410156 C 310.777344 90.804688 315.867188 84.386719 322.207031 82.996094 C 322.832031 83.34375 323.425781 83.742188 323.992188 84.183594 C 315.582031 84.21875 310.777344 94.234375 310.644531 102.675781 Z M 310.644531 102.675781 " fill-opacity="0.08" fill-rule="nonzero"/><path fill="#000000" d="M 290.882812 102.195312 C 288.753906 104.695312 286.375 106.929688 283.742188 108.898438 C 276.035156 114.691406 266.964844 118.257812 258.417969 122.617188 C 247.757812 128.015625 237.445312 134.84375 230.644531 144.671875 C 222.605469 156.273438 220.230469 171.070312 220.910156 185.210938 C 221.589844 199.347656 225.042969 213.164062 227.632812 227.078125 C 229.019531 234.496094 230.144531 242.171875 228.464844 249.527344 C 227.007812 255.84375 223.035156 261.921875 217.3125 264.699219 C 220.75 261.421875 223.453125 257.625 225.417969 253.300781 C 232.035156 238.183594 225.214844 221.007812 221.347656 204.960938 C 217.777344 190.234375 216.882812 174.613281 220.730469 159.996094 C 224.582031 145.375 233.714844 131.773438 246.902344 124.292969 C 253.054688 120.820312 259.875 118.75 266.542969 116.3125 C 275.375 113.09375 284.367188 108.796875 290.882812 102.195312 Z M 290.882812 102.195312 " fill-opacity="0.08" fill-rule="nonzero"/><path fill="#000000" d="M 43.964844 176.773438 C 44.363281 181.625 44.519531 186.484375 44.429688 191.351562 C 44.429688 193.277344 44.355469 195.277344 44.429688 197.292969 C 43.246094 191.644531 42.449219 185.941406 42.035156 180.183594 C 41.5625 173.632812 41.339844 166.375 36.792969 161.636719 C 33.5 158.191406 28.632812 156.890625 24.167969 155.21875 C 21.265625 154.132812 18.453125 152.847656 15.730469 151.363281 C 16.375 151.480469 17.007812 151.578125 17.644531 151.660156 C 24.417969 152.605469 31.804688 153.203125 36.894531 157.773438 C 41.980469 162.34375 43.394531 169.867188 43.964844 176.773438 Z M 43.964844 176.773438 " fill-opacity="0.1" fill-rule="nonzero"/><path fill="#000000" d="M 127.75 275.1875 C 122.230469 276.820312 116.644531 278.246094 111.019531 279.453125 C 106.429688 280.433594 101.6875 281.238281 97.070312 280.453125 C 92.457031 279.667969 87.917969 276.820312 86.277344 272.417969 C 84.277344 267.066406 86.882812 261.273438 88.957031 255.953125 C 91.554688 249.183594 93.257812 242.199219 94.0625 234.996094 C 94.535156 230.738281 94.597656 226.070312 92.195312 222.554688 C 88.152344 216.582031 79.472656 216.554688 72.339844 217.609375 C 66.980469 218.394531 60.972656 219.269531 56.042969 217.609375 C 65.472656 219.714844 77.1875 212.832031 86.554688 216.976562 C 92.332031 219.527344 95.714844 225.898438 96.230469 232.191406 C 96.75 238.484375 94.855469 244.6875 92.535156 250.589844 C 90.964844 254.585938 89.167969 258.558594 88.5625 262.816406 C 87.957031 267.074219 88.722656 271.742188 91.707031 274.875 C 95.007812 278.320312 100.292969 279.085938 105.035156 278.445312 C 109.777344 277.800781 114.3125 276.125 119.035156 275.363281 C 121.933594 274.929688 124.835938 274.867188 127.75 275.1875 Z M 127.75 275.1875 " fill-opacity="0.1" fill-rule="nonzero"/><path fill="#000000" d="M 64.160156 332.640625 C 54.464844 330.285156 45.230469 325.160156 40.179688 316.671875 C 31.992188 302.917969 36.957031 285.433594 41.855469 270.207031 C 42.75 267.402344 43.644531 264.253906 42.292969 261.628906 C 40.417969 257.933594 35.507812 257.425781 31.5 256.371094 C 17.492188 252.6875 9.292969 237.378906 8.4375 222.929688 C 8.382812 222.035156 8.355469 221.144531 8.339844 220.304688 C 11.429688 236.371094 22.972656 250.945312 38.472656 256.550781 C 41.597656 257.683594 45.1875 258.753906 46.714844 261.710938 C 48.375 264.921875 46.804688 268.769531 45.417969 272.105469 C 43.542969 276.652344 42.035156 281.316406 40.902344 286.101562 C 39.542969 291.839844 38.730469 297.792969 39.4375 303.660156 C 41.070312 317.019531 51.4375 328.625 64.160156 332.640625 Z M 64.160156 332.640625 " fill-opacity="0.1" fill-rule="nonzero"/><path fill="#000000" d="M 101.347656 333.878906 C 92.179688 334.113281 82.964844 334.898438 73.855469 334.148438 C 80.730469 334.148438 87.527344 332.167969 94.394531 332.460938 C 96.785156 332.570312 99.105469 333.042969 101.347656 333.878906 Z M 101.347656 333.878906 " fill-opacity="0.1" fill-rule="nonzero"/></svg>