<svg xmlns="http://www.w3.org/2000/svg" xmlns:xlink="http://www.w3.org/1999/xlink" width="500" zoomAndPan="magnify" viewBox="0 0 375 374.999991" height="500" preserveAspectRatio="xMidYMid meet" version="1.0"><defs><clipPath id="7894ded8c4"><path d="M 222.15625 153.253906 L 374.980469 153.253906 L 374.980469 344.945312 L 222.15625 344.945312 Z M 222.15625 153.253906 " clip-rule="nonzero"/></clipPath><clipPath id="cbb95a019c"><path d="M 318.199219 194.191406 L 374.980469 194.191406 L 374.980469 328.808594 L 318.199219 328.808594 Z M 318.199219 194.191406 " clip-rule="nonzero"/></clipPath><clipPath id="dc9c12c264"><path d="M 329.617188 204.425781 L 374.980469 204.425781 L 374.980469 328.808594 L 329.617188 328.808594 Z M 329.617188 204.425781 " clip-rule="nonzero"/></clipPath></defs><path fill="#8f9199" d="M 27.484375 155.457031 C 27.484375 155.457031 11.824219 174.046875 5.90625 193.773438 C -0.0078125 213.496094 1.964844 248.996094 0.976562 267.734375 C -0.0078125 286.472656 21.6875 322.960938 34.011719 327.398438 C 46.339844 331.835938 120.796875 319.507812 120.796875 319.507812 C 120.796875 319.507812 142.492188 292.386719 149.394531 278.582031 C 156.296875 264.773438 169.613281 193.773438 148.410156 179.964844 C 127.207031 166.160156 27.484375 155.457031 27.484375 155.457031 " fill-opacity="1" fill-rule="nonzero"/><path fill="#82858f" d="M 29.574219 213.003906 C 29.574219 213.003906 33.320312 181.53125 34.230469 156.226562 C 29.972656 155.722656 27.484375 155.457031 27.484375 155.457031 C 27.484375 155.457031 11.824219 174.046875 5.90625 193.773438 C -0.0078125 213.496094 1.964844 248.996094 0.976562 267.734375 C -0.0078125 286.472656 21.6875 322.960938 34.011719 327.398438 C 34.066406 327.414062 34.167969 327.421875 34.222656 327.441406 C 29.550781 317.347656 20.128906 296.457031 15.769531 283.019531 C 9.851562 264.773438 19.714844 235.683594 22.179688 230.261719 C 24.644531 224.835938 29.574219 213.003906 29.574219 213.003906 " fill-opacity="1" fill-rule="nonzero"/><path fill="#a0a2ab" d="M 299.445312 49.171875 C 299.445312 49.171875 316.550781 67.542969 318.523438 75.429688 C 320.496094 83.320312 335.289062 150.378906 335.289062 150.378906 C 335.289062 150.378906 344.164062 172.570312 321.976562 209.550781 C 299.785156 246.53125 222.371094 343.175781 222.371094 343.175781 C 222.371094 343.175781 206.59375 326.902344 199.691406 322.960938 C 192.789062 319.015625 121.78125 320.988281 120.796875 319.507812 C 119.808594 318.027344 123.261719 276.609375 125.726562 270.199219 C 128.191406 263.789062 117.839844 203.140625 117.34375 193.773438 C 116.851562 184.402344 160.609375 116.355469 160.609375 116.355469 L 299.445312 49.171875 " fill-opacity="1" fill-rule="nonzero"/><path fill="#9799a3" d="M 214.238281 213.859375 C 214.238281 213.859375 189.878906 243.121094 178.277344 254.832031 C 171.671875 261.5 125.972656 281.046875 125.972656 281.046875 C 125.972656 281.046875 123.371094 295.351562 120.992188 308.976562 C 120.613281 314.804688 120.492188 319.054688 120.796875 319.507812 C 121.78125 320.988281 192.789062 319.015625 199.691406 322.960938 C 200.878906 323.636719 202.378906 324.761719 203.96875 326.027344 C 208.347656 319.730469 210.867188 314.484375 210.867188 312.296875 C 210.867188 305.207031 235.933594 219.738281 235.933594 219.738281 L 214.238281 213.859375 " fill-opacity="1" fill-rule="nonzero"/><path fill="#9799a1" d="M 335.289062 150.378906 C 335.289062 150.378906 320.496094 83.320312 318.523438 75.429688 C 316.550781 67.542969 299.445312 49.171875 299.445312 49.171875 L 238.746094 78.546875 C 226.253906 89.117188 217.9375 99.886719 217.65625 110.003906 C 217.65625 110.003906 231.90625 148.734375 238.066406 183.066406 C 243.191406 211.613281 230.316406 264.519531 230.316406 264.519531 C 230.316406 264.519531 275.269531 252.179688 297.296875 245.6875 C 307.570312 231.566406 316.472656 218.71875 321.976562 209.550781 C 344.164062 172.570312 335.289062 150.378906 335.289062 150.378906 " fill-opacity="1" fill-rule="nonzero"/><path fill="#8f9199" d="M 335.289062 150.378906 C 335.289062 150.378906 320.496094 83.320312 318.523438 75.429688 C 318.523438 75.429688 308.296875 83.046875 301 109.316406 C 293.703125 135.585938 292.390625 156.625 283.84375 159.914062 C 277.554688 162.332031 258.457031 173.097656 248.785156 178.625 C 248.785156 178.625 243.785156 180.363281 240.367188 184.527344 C 232.207031 194.480469 220.59375 213.132812 217.65625 217.765625 C 214.113281 223.371094 200.703125 299.683594 196.816406 322.144531 C 198.085938 322.386719 199.148438 322.648438 199.691406 322.960938 C 206.59375 326.902344 222.371094 343.175781 222.371094 343.175781 C 222.371094 343.175781 239.222656 322.140625 259.453125 295.941406 L 255.40625 251.421875 C 268.472656 250.738281 285.40625 249.195312 297.296875 245.6875 C 307.570312 231.5625 316.472656 218.71875 321.976562 209.550781 C 344.164062 172.570312 335.289062 150.378906 335.289062 150.378906 " fill-opacity="1" fill-rule="nonzero"/><path fill="#82858f" d="M 335.289062 150.378906 C 335.289062 150.378906 320.496094 83.320312 318.523438 75.429688 C 318.523438 75.429688 308.296875 83.046875 301 109.316406 C 294.046875 134.359375 292.457031 154.457031 284.925781 159.148438 C 285.367188 160.65625 285.875 162.179688 286.484375 163.695312 C 291.074219 175.035156 291.734375 199.359375 291.734375 199.359375 C 291.734375 199.359375 311.851562 197.832031 330.109375 193.542969 C 341.558594 166.289062 335.289062 150.378906 335.289062 150.378906 " fill-opacity="1" fill-rule="nonzero"/><path fill="#b0b3bf" d="M 234.855469 30.054688 C 261.140625 30.070312 297.949219 40.988281 300.90625 51.835938 C 303.863281 62.683594 281.542969 76.417969 249.984375 87.265625 C 218.425781 98.113281 224.34375 108.960938 212.511719 112.90625 C 200.675781 116.851562 141.058594 169.203125 119.808594 204.621094 C 113.894531 214.480469 31.054688 229.273438 25.136719 223.355469 C 19.222656 217.441406 15.277344 165.171875 32.042969 149.394531 C 48.804688 133.617188 64.585938 111.917969 104.03125 93.183594 C 143.476562 74.445312 211.210938 30.039062 234.855469 30.054688 " fill-opacity="1" fill-rule="nonzero"/><path fill="#a9acb8" d="M 300.90625 51.835938 C 297.949219 40.988281 261.136719 30.066406 234.855469 30.054688 C 215.511719 30.039062 166.679688 59.742188 127.949219 80.8125 C 127.945312 80.820312 178.980469 68.527344 202.648438 69.515625 C 226.316406 70.5 239.136719 73.203125 202.648438 96.011719 C 166.160156 118.824219 148.851562 160.675781 148.851562 160.675781 C 148.851562 160.675781 151.425781 160.667969 155.933594 160.496094 C 179.472656 136.410156 205.171875 115.351562 212.511719 112.90625 C 224.34375 108.960938 218.425781 98.113281 249.984375 87.265625 C 281.542969 76.417969 303.863281 62.683594 300.90625 51.835938 " fill-opacity="1" fill-rule="nonzero"/><path fill="#c5c8d6" d="M 300.90625 51.835938 C 300.90625 51.835938 298.671875 59.601562 291.039062 64.988281 C 283.402344 70.378906 268.585938 76.214844 256.910156 78.910156 C 245.238281 81.601562 234.007812 88.339844 227.191406 94.175781 C 220.371094 100.015625 212.007812 106.300781 205.722656 110.339844 C 199.433594 114.382812 197.730469 122.582031 182.371094 129.652344 C 167.011719 136.71875 161.265625 148.511719 154.082031 155.457031 C 146.898438 162.402344 135.222656 174.554688 131.628906 182.1875 C 128.039062 189.820312 120.484375 202.65625 117.339844 204.859375 C 114.199219 207.0625 97.953125 211.375 80.425781 214.96875 C 62.898438 218.558594 65.171875 216.761719 56.191406 216.761719 C 47.210938 216.761719 41.734375 218.824219 33.242188 219.273438 C 24.753906 219.722656 24.757812 214.070312 23.863281 204.148438 C 22.964844 194.230469 22.515625 187.125 23.410156 179.492188 C 24.3125 171.859375 24.464844 162.183594 24.464844 162.183594 C 20.332031 170.765625 20.070312 177.832031 18.832031 185.507812 C 16.945312 197.167969 17.429688 204.148438 18.511719 210.878906 C 18.996094 214.488281 18.339844 227.605469 14.238281 240.183594 C 10.121094 252.8125 10.671875 260.496094 10.671875 267.085938 C 10.671875 273.671875 11.847656 281.558594 14.042969 286.222656 C 16.238281 290.890625 20.554688 303.320312 22.75 308.8125 C 24.945312 314.300781 34.011719 327.398438 34.011719 327.398438 C 34.011719 327.398438 25.0625 308.34375 24.382812 301.757812 C 23.707031 295.167969 22.75 289.046875 18.90625 279.4375 C 15.0625 269.832031 18.082031 261.59375 18.90625 259.671875 C 19.730469 257.753906 25.769531 239.910156 27.691406 234.96875 C 29.613281 230.027344 38.121094 228.933594 38.121094 228.933594 C 50.65625 228.222656 73.5625 222.421875 80.425781 220.804688 C 84.628906 219.8125 92.234375 218.574219 100.1875 217.285156 C 103.410156 217.117188 108.199219 217.78125 111.921875 222.246094 C 118.085938 229.644531 116.605469 237.410156 118.332031 244.558594 C 128.144531 285.210938 110.679688 264.511719 120.796875 319.507812 C 120.796875 319.507812 123.015625 302.988281 123.261719 300.523438 C 123.507812 298.058594 123.015625 286.71875 125.972656 281.046875 C 128.933594 275.375 129.671875 264.285156 129.671875 261.570312 C 129.671875 258.859375 129.179688 240.613281 127.207031 235.929688 C 125.234375 231.246094 126.714844 220.128906 129.671875 216.441406 C 132.605469 212.785156 134.492188 198.847656 137.238281 194.039062 C 138.339844 192.359375 139.460938 190.648438 140.609375 188.921875 C 148.691406 176.796875 156.777344 166.023438 160.609375 160.632812 C 164.441406 155.246094 180.125 141.773438 189.554688 136.835938 C 198.984375 131.894531 203.085938 121.671875 214.578125 118.976562 C 217.640625 118 222.371094 130.984375 223.6875 137.230469 C 225 143.476562 230.589844 161.554688 232.890625 171.746094 C 235.191406 181.9375 233.601562 184.683594 232.5625 189.496094 C 231.519531 194.3125 217.523438 209.316406 214.238281 213.859375 C 210.949219 218.402344 208.566406 234.203125 207.25 238.476562 C 205.933594 242.75 208.238281 256.886719 207.769531 261.5 C 207.308594 266.113281 203.632812 279.238281 202.320312 287.128906 C 201.003906 295.019531 198.535156 312.296875 198.535156 312.296875 C 198.535156 312.296875 204.949219 288.117188 205.933594 284.171875 C 206.921875 280.226562 211.195312 265.433594 211.851562 258.859375 C 212.511719 252.285156 217.769531 229.601562 217.65625 224.710938 C 217.546875 219.820312 222.371094 216.453125 226.734375 210.179688 C 231.097656 203.90625 235.519531 194.429688 239.136719 190.15625 C 242.753906 185.882812 244.066406 182.265625 242.144531 176.046875 C 240.21875 169.832031 235.847656 151.695312 234.863281 144.132812 C 233.878906 136.574219 228.617188 129.671875 227.191406 120.464844 C 226.273438 114.546875 226.921875 111.652344 227.507812 110.324219 C 227.710938 110 227.921875 109.664062 228.132812 109.320312 C 229.3125 107.398438 230.625 105.136719 232.476562 102.421875 C 239.210938 92.542969 250.625 90.136719 263.199219 86.992188 C 275.769531 83.847656 270.832031 84.296875 288.792969 73.070312 C 306.753906 61.84375 300.90625 51.835938 300.90625 51.835938 " fill-opacity="1" fill-rule="nonzero"/><g clip-path="url(#7894ded8c4)"><path fill="#8f9199" d="M 222.371094 343.175781 C 222.371094 343.175781 222.867188 318.519531 222.371094 310.632812 C 221.878906 302.742188 230.261719 251.953125 239.136719 243.570312 C 248.011719 235.191406 274.636719 210.410156 289.429688 196.171875 C 304.222656 181.9375 331.085938 151.292969 336.144531 153.550781 C 341.203125 155.804688 357.476562 181.445312 361.421875 190.320312 C 365.367188 199.195312 371.777344 246.039062 374.734375 267.238281 C 377.691406 288.441406 353.039062 320 340.21875 326.410156 C 327.398438 332.820312 238.644531 350.570312 222.371094 343.175781 " fill-opacity="1" fill-rule="nonzero"/></g><path fill="#9799a3" d="M 255.199219 249.1875 L 236.957031 246.554688 C 228.941406 260.136719 221.917969 303.394531 222.371094 310.632812 C 222.867188 318.519531 222.371094 343.175781 222.371094 343.175781 C 224.457031 344.125 227.753906 344.644531 231.902344 344.847656 C 233.347656 335.351562 236.730469 312.460938 236.957031 304.714844 C 237.242188 294.851562 243.082031 279.566406 245.546875 274.636719 C 248.011719 269.707031 255.199219 249.1875 255.199219 249.1875 " fill-opacity="1" fill-rule="nonzero"/><g clip-path="url(#cbb95a019c)"><path fill="#82858f" d="M 374.734375 267.238281 C 372.082031 248.234375 366.660156 208.710938 362.722656 194.3125 C 351.640625 207.417969 328.597656 234.335938 320.355469 241.449219 C 313.476562 247.386719 324.636719 294.289062 333.992188 328.683594 C 336.683594 327.84375 338.925781 327.058594 340.21875 326.410156 C 353.039062 320 377.691406 288.441406 374.734375 267.238281 " fill-opacity="1" fill-rule="nonzero"/></g><g clip-path="url(#dc9c12c264)"><path fill="#7a7c87" d="M 365.039062 204.625 C 365.015625 204.683594 362.417969 218.425781 365.042969 233.710938 C 367.671875 249.015625 361.871094 270.363281 357.042969 276.9375 C 353.476562 281.796875 337.851562 302.6875 329.921875 313.28125 C 331.277344 318.5625 332.652344 323.757812 333.992188 328.683594 C 336.683594 327.84375 338.925781 327.058594 340.21875 326.410156 C 353.039062 320 377.691406 288.441406 374.734375 267.238281 C 372.574219 251.757812 368.578125 222.664062 365.039062 204.625 " fill-opacity="1" fill-rule="nonzero"/></g><path fill="#a0a2ab" d="M 361.421875 190.320312 C 357.476562 181.445312 341.203125 155.804688 336.144531 153.550781 C 331.085938 151.292969 304.222656 181.9375 289.429688 196.171875 C 274.636719 210.410156 248.011719 235.191406 239.136719 243.570312 C 238.402344 244.265625 237.679688 245.335938 236.957031 246.554688 C 242.0625 250.199219 248.925781 254.503906 253.433594 254.832031 C 261.324219 255.40625 312.734375 248.996094 320.355469 241.449219 C 325.847656 236.011719 350.828125 216.195312 365.042969 204.621094 C 363.734375 197.9375 362.488281 192.71875 361.421875 190.320312 " fill-opacity="1" fill-rule="nonzero"/></svg>