<svg xmlns="http://www.w3.org/2000/svg" xmlns:xlink="http://www.w3.org/1999/xlink" width="500" zoomAndPan="magnify" viewBox="0 0 375 374.999991" height="500" preserveAspectRatio="xMidYMid meet" version="1.0"><defs><clipPath id="578438c91b"><path d="M 187 117.628906 L 202 117.628906 L 202 134 L 187 134 Z M 187 117.628906 " clip-rule="nonzero"/></clipPath></defs><path fill="#1f1810" d="M 330.039062 182.347656 C 332.109375 183.121094 333.917969 184.027344 335.46875 185.058594 C 344.007812 182.214844 347.367188 183.894531 345.558594 190.089844 C 343.75 196.539062 337.796875 198.347656 327.710938 195.507812 C 329.261719 199.890625 326.933594 202.863281 320.726562 204.410156 C 316.589844 205.183594 313.875 204.796875 312.578125 203.25 L 312.964844 204.410156 C 312.710938 206.988281 310.125 208.792969 305.203125 209.828125 C 300.292969 210.601562 297.058594 210.214844 295.503906 208.667969 L 294.339844 205.957031 C 292.269531 210.085938 289.949219 212.40625 287.355469 212.917969 C 285.804688 213.171875 283.863281 212.664062 281.535156 211.371094 L 278.441406 209.433594 C 277.65625 211.765625 275.203125 213.4375 271.066406 214.464844 C 268.484375 215.238281 266.277344 215.109375 264.472656 214.078125 L 262.144531 212.144531 L 256.710938 214.851562 C 254.382812 215.890625 251.535156 216.015625 248.175781 215.238281 L 243.519531 213.304688 C 242.484375 215.109375 239.636719 216.144531 234.980469 216.402344 C 232.398438 216.65625 230.070312 216.269531 227.996094 215.238281 L 225.273438 213.699219 L 222.945312 216.023438 C 221.914062 216.796875 220.097656 217.050781 217.511719 216.796875 L 214.410156 216.023438 C 212.601562 218.34375 209.753906 219.503906 205.875 219.503906 C 203.546875 219.503906 201.085938 218.722656 198.5 217.175781 L 195.398438 214.851562 L 193.070312 217.570312 C 191.773438 219.375 188.28125 219.890625 182.59375 219.109375 C 182.335938 220.914062 179.355469 221.828125 173.667969 221.828125 C 170.042969 221.828125 166.941406 220.789062 164.355469 218.730469 L 161.640625 215.246094 L 158.921875 218.730469 C 157.113281 220.796875 152.847656 220.796875 146.117188 218.730469 C 144.046875 216.925781 139.132812 216.152344 131.375 216.410156 C 126.460938 216.664062 122.582031 215.898438 119.734375 214.085938 L 117.019531 211.378906 L 111.199219 214.472656 C 107.316406 216.539062 102.792969 215.117188 97.617188 210.214844 L 92.183594 210.601562 C 90.113281 210.859375 88.171875 210.472656 86.363281 209.441406 L 84.035156 207.507812 C 84.035156 208.800781 82.097656 209.308594 78.214844 209.054688 C 75.886719 208.800781 74.078125 207.628906 72.785156 205.570312 L 71.621094 202.085938 C 71.363281 203.628906 69.679688 204.535156 66.574219 204.796875 C 64.503906 205.050781 62.828125 204.410156 61.53125 202.863281 L 59.980469 200.152344 C 57.652344 200.40625 54.933594 199.113281 51.832031 196.28125 C 49.757812 194.734375 49.503906 192.921875 51.054688 190.863281 L 54.160156 188.152344 C 53.382812 187.125 52.996094 185.960938 52.996094 184.671875 C 52.738281 182.347656 54.414062 181.054688 58.039062 180.800781 C 63.726562 180.28125 67.738281 181.441406 70.066406 184.28125 C 70.332031 182.988281 70.710938 181.707031 71.230469 180.414062 C 72.527344 177.570312 74.59375 175.769531 77.441406 174.992188 C 82.097656 173.964844 85.976562 173.699219 89.082031 174.21875 C 89.335938 173.445312 89.601562 172.671875 89.855469 171.898438 C 90.886719 169.832031 92.183594 168.15625 93.738281 166.867188 C 96.585938 164.796875 100.464844 164.410156 105.378906 165.703125 L 107.707031 159.511719 C 109.257812 155.386719 112.230469 154.222656 116.628906 156.027344 C 116.375 155.507812 116.375 154.867188 116.628906 154.09375 C 117.148438 152.542969 118.570312 151.25 120.898438 150.222656 C 124.777344 148.417969 130.34375 148.15625 137.582031 149.449219 L 139.910156 145.191406 C 141.984375 142.347656 143.921875 140.414062 145.730469 139.382812 C 148.578125 138.089844 151.683594 137.96875 155.042969 138.996094 C 155.042969 138.222656 155.175781 137.449219 155.429688 136.675781 C 156.207031 134.609375 157.757812 132.9375 160.085938 131.644531 C 163.457031 129.574219 167.335938 129.453125 171.726562 131.253906 C 171.726562 129.964844 171.984375 128.679688 172.503906 127.386719 C 173.535156 124.808594 175.351562 123.382812 177.9375 123.128906 C 182.070312 122.863281 185.953125 124.421875 189.578125 127.773438 C 189.054688 127.261719 188.933594 126.609375 189.1875 125.835938 C 189.445312 124.542969 191.128906 123.644531 194.234375 123.128906 C 199.144531 122.351562 203.023438 123.769531 205.875 127.386719 L 206.648438 125.449219 C 207.679688 124.15625 209.234375 123.769531 211.304688 124.289062 C 214.410156 125.316406 217.511719 127.773438 220.617188 131.644531 L 225.273438 132.03125 C 228.378906 132.539062 230.582031 133.324219 231.871094 134.351562 C 234.453125 136.15625 236.394531 138.742188 237.691406 142.09375 L 241.570312 141.707031 C 244.675781 141.960938 246.746094 143 247.777344 144.804688 C 249.585938 147.898438 251.394531 150.222656 253.210938 151.769531 L 256.703125 150.609375 C 259.550781 150.089844 262.003906 150.609375 264.074219 152.15625 C 267.699219 154.734375 267.179688 156.671875 262.523438 157.960938 L 276.105469 158.351562 C 281.535156 158.09375 286.84375 161.964844 292.019531 169.960938 L 293.566406 168.414062 C 295.371094 167.382812 297.839844 167.640625 300.9375 169.1875 C 306.113281 171.253906 307.410156 173.445312 304.816406 175.769531 L 307.921875 174.992188 C 310.503906 174.21875 313.230469 173.964844 316.070312 174.21875 C 320.207031 174.738281 322.664062 177.058594 323.441406 181.1875 C 324.21875 180.414062 326.414062 180.800781 330.039062 182.347656 Z M 330.039062 182.347656 " fill-opacity="1" fill-rule="evenodd"/><path fill="#332612" d="M 281.925781 171.121094 C 287.613281 175.769531 288.527344 180.289062 284.648438 184.671875 C 280.511719 188.796875 276.886719 188.152344 273.785156 182.734375 C 271.199219 177.570312 271.199219 173.699219 273.785156 171.121094 C 276.105469 168.800781 278.820312 168.800781 281.925781 171.121094 Z M 281.925781 171.121094 " fill-opacity="1" fill-rule="evenodd"/><path fill="#332612" d="M 223.722656 139.769531 C 230.449219 144.933594 231.480469 149.957031 226.824219 154.867188 C 222.425781 160.03125 218.421875 159.644531 214.796875 153.707031 C 211.949219 148.804688 211.949219 144.671875 214.796875 141.320312 C 217.644531 138.222656 220.617188 137.703125 223.722656 139.769531 Z M 223.722656 139.769531 " fill-opacity="1" fill-rule="evenodd"/><path fill="#332612" d="M 216.738281 168.414062 C 225.273438 168.933594 228.378906 173.058594 226.050781 180.800781 C 223.976562 188.796875 220.484375 191.636719 215.574219 189.316406 C 211.691406 187.246094 210.015625 183.253906 210.527344 177.316406 C 211.050781 171.378906 213.113281 168.414062 216.738281 168.414062 Z M 216.738281 168.414062 " fill-opacity="1" fill-rule="evenodd"/><path fill="#332612" d="M 241.570312 190.089844 C 246.226562 192.667969 248.421875 196.28125 248.167969 200.925781 C 247.648438 205.835938 244.804688 207.375 239.628906 205.570312 C 234.972656 204.285156 233.554688 201.058594 235.363281 195.894531 C 237.171875 190.476562 239.242188 188.539062 241.570312 190.089844 Z M 241.570312 190.089844 " fill-opacity="1" fill-rule="evenodd"/><path fill="#332612" d="M 193.457031 206.34375 C 199.144531 206.601562 201.859375 209.433594 201.605469 214.859375 C 201.347656 220.289062 199.019531 222.988281 194.621094 222.988281 C 190.484375 222.988281 188.023438 220.15625 187.25 214.472656 C 186.726562 208.800781 188.800781 206.089844 193.457031 206.34375 Z M 193.457031 206.34375 " fill-opacity="1" fill-rule="evenodd"/><path fill="#332612" d="M 144.953125 195.121094 C 149.347656 196.925781 150.644531 200.539062 148.835938 205.957031 C 147.027344 211.113281 144.3125 211.894531 140.6875 208.28125 C 137.582031 204.921875 137.0625 201.570312 139.132812 198.21875 C 140.941406 195.121094 142.882812 194.089844 144.953125 195.121094 Z M 144.953125 195.121094 " fill-opacity="1" fill-rule="evenodd"/><path fill="#332612" d="M 95.675781 200.539062 C 100.589844 202.605469 101.753906 206.214844 99.167969 211.371094 C 96.585938 216.277344 93.347656 217.957031 89.46875 216.402344 C 86.109375 214.851562 85.589844 211.492188 87.917969 206.335938 C 90.246094 201.4375 92.828125 199.503906 95.675781 200.539062 Z M 95.675781 200.539062 " fill-opacity="1" fill-rule="evenodd"/><path fill="#332612" d="M 59.203125 193.960938 C 64.117188 195.253906 65.667969 197.699219 63.859375 201.3125 C 62.308594 205.183594 59.980469 206.609375 56.875 205.570312 C 54.292969 204.796875 53.25 202.484375 53.769531 198.613281 C 54.292969 194.988281 56.097656 193.441406 59.203125 193.960938 Z M 59.203125 193.960938 " fill-opacity="1" fill-rule="evenodd"/><path fill="#332612" d="M 134.867188 163.769531 C 140.042969 164.542969 141.074219 167.375 137.96875 172.285156 C 134.609375 177.183594 131.507812 178.734375 128.65625 176.929688 C 125.808594 174.863281 124.910156 172.027344 125.941406 168.414062 C 127.238281 164.542969 130.210938 162.996094 134.867188 163.769531 Z M 134.867188 163.769531 " fill-opacity="1" fill-rule="evenodd"/><path fill="#332612" d="M 277.65625 198.992188 C 283.34375 198.992188 285.929688 201.699219 285.417969 207.121094 C 285.160156 212.539062 282.574219 214.992188 277.65625 214.472656 C 273 214.21875 270.925781 211.5 271.449219 206.34375 C 271.703125 201.4375 273.777344 198.992188 277.65625 198.992188 Z M 277.65625 198.992188 " fill-opacity="1" fill-rule="evenodd"/><path fill="#332612" d="M 310.25 190.863281 C 313.089844 195.246094 313.617188 198.734375 311.800781 201.3125 C 309.992188 203.898438 307.011719 204.796875 302.875 204.03125 C 298.484375 203.25 297.839844 199.378906 300.9375 192.417969 C 303.527344 185.960938 306.625 185.445312 310.25 190.863281 Z M 310.25 190.863281 " fill-opacity="1" fill-rule="evenodd"/><path fill="#332612" d="M 319.5625 186.605469 C 316.96875 184.027344 316.324219 181.1875 317.621094 178.089844 C 318.910156 175.25 320.851562 175.125 323.441406 177.703125 C 325.515625 179.769531 326.027344 182.347656 324.992188 185.445312 C 323.699219 188.539062 321.890625 188.925781 319.5625 186.605469 Z M 319.5625 186.605469 " fill-opacity="1" fill-rule="evenodd"/><path fill="#332612" d="M 334.695312 192.410156 C 338.054688 193.960938 338.574219 196.667969 336.238281 200.539062 C 333.652344 204.15625 330.9375 205.5625 328.089844 204.796875 C 324.992188 204.023438 324.464844 201.3125 326.539062 196.667969 C 328.609375 192.28125 331.332031 190.863281 334.695312 192.410156 Z M 334.695312 192.410156 " fill-opacity="1" fill-rule="evenodd"/><path fill="#332612" d="M 253.597656 157.964844 C 257.214844 158.738281 258.511719 161.570312 257.480469 166.476562 C 256.183594 171.378906 253.855469 172.671875 250.496094 170.347656 C 247.390625 168.027344 246.746094 165.183594 248.554688 161.832031 C 250.363281 158.738281 252.046875 157.445312 253.597656 157.964844 Z M 253.597656 157.964844 " fill-opacity="1" fill-rule="evenodd"/><path fill="#332612" d="M 235.363281 161.058594 C 240.792969 163.382812 242.601562 166.476562 240.792969 170.347656 C 238.722656 173.964844 236.007812 174.992188 232.644531 173.445312 C 230.574219 172.414062 230.449219 170.085938 232.257812 166.476562 Z M 235.363281 161.058594 " fill-opacity="1" fill-rule="evenodd"/><path fill="#332612" d="M 196.171875 159.511719 C 202.902344 162.089844 204.320312 165.960938 200.441406 171.121094 C 196.5625 176.023438 193.191406 177.957031 190.351562 176.929688 C 188.28125 176.15625 188.023438 172.804688 189.578125 166.867188 C 191.128906 160.929688 193.324219 158.480469 196.171875 159.511719 Z M 196.171875 159.511719 " fill-opacity="1" fill-rule="evenodd"/><path fill="#332612" d="M 164.355469 176.15625 C 172.371094 175.378906 175.476562 178.609375 173.667969 185.832031 C 171.859375 193.0625 169.011719 196.667969 165.132812 196.667969 C 162.546875 196.667969 161.25 193.308594 161.25 186.605469 C 161.507812 179.636719 162.546875 176.15625 164.355469 176.15625 Z M 164.355469 176.15625 " fill-opacity="1" fill-rule="evenodd"/><path fill="#332612" d="M 114.691406 181.574219 C 117.273438 186.472656 117.273438 190.34375 114.691406 193.183594 C 112.363281 196.28125 109.390625 196.28125 105.765625 193.183594 C 102.660156 190.34375 102.917969 186.859375 106.542969 182.734375 C 110.421875 178.609375 113.136719 178.222656 114.691406 181.574219 Z M 114.691406 181.574219 " fill-opacity="1" fill-rule="evenodd"/><path fill="#332612" d="M 176.382812 145.578125 C 182.59375 146.605469 183.757812 149.835938 179.875 155.253906 C 175.730469 160.929688 172.117188 162.609375 169.011719 160.285156 C 166.164062 158.21875 165.652344 155.121094 167.460938 150.996094 C 169.53125 146.605469 172.503906 144.804688 176.382812 145.578125 Z M 176.382812 145.578125 " fill-opacity="1" fill-rule="evenodd"/><path fill="#332612" d="M 91.410156 169.574219 C 96.320312 172.925781 96.972656 176.410156 93.347656 180.023438 C 89.210938 183.894531 86.234375 183.894531 84.425781 180.023438 C 82.871094 176.929688 83.128906 174.085938 85.199219 171.511719 C 87.273438 168.667969 89.335938 168.027344 91.410156 169.574219 Z M 91.410156 169.574219 " fill-opacity="1" fill-rule="evenodd"/><path fill="#332612" d="M 114.691406 201.699219 C 120.898438 202.738281 122.449219 206.609375 119.347656 213.3125 C 116.242188 220.28125 113.011719 221.835938 109.644531 217.964844 C 106.796875 214.605469 106.152344 210.867188 107.707031 206.738281 C 109.511719 202.863281 111.839844 201.183594 114.691406 201.699219 Z M 114.691406 201.699219 " fill-opacity="1" fill-rule="evenodd"/><path fill="#332612" d="M 163.191406 210.601562 C 167.847656 212.152344 169.398438 214.859375 167.847656 218.730469 C 166.296875 222.601562 163.710938 223.761719 160.085938 222.214844 C 156.726562 220.667969 155.820312 218.089844 157.371094 214.472656 C 158.921875 211.113281 160.863281 209.828125 163.191406 210.601562 Z M 163.191406 210.601562 " fill-opacity="1" fill-rule="evenodd"/><path fill="#332612" d="M 149.222656 159.511719 C 157.503906 159.765625 160.730469 162.738281 158.921875 168.414062 C 157.113281 173.832031 153.746094 176.023438 148.835938 174.992188 C 144.953125 174.21875 143.269531 171.378906 143.789062 166.476562 C 144.3125 161.578125 146.117188 159.253906 149.222656 159.511719 Z M 149.222656 159.511719 " fill-opacity="1" fill-rule="evenodd"/><path fill="#332612" d="M 158.148438 136.675781 C 164.097656 136.929688 165.519531 139.253906 162.414062 143.640625 C 159.046875 148.023438 156.207031 149.449219 153.878906 147.898438 C 151.808594 146.605469 151.292969 144.414062 152.328125 141.320312 C 153.359375 137.96875 155.300781 136.417969 158.148438 136.675781 Z M 158.148438 136.675781 " fill-opacity="1" fill-rule="evenodd"/><path fill="#332612" d="M 196.171875 138.222656 C 202.902344 139.253906 204.578125 142.09375 201.21875 146.738281 C 197.59375 151.636719 194.753906 153.1875 192.679688 151.382812 C 191.382812 149.835938 191.128906 147.257812 191.90625 143.640625 C 192.679688 139.769531 194.101562 137.96875 196.171875 138.222656 Z M 196.171875 138.222656 " fill-opacity="1" fill-rule="evenodd"/><path fill="#332612" d="M 240.792969 145.578125 C 245.707031 148.929688 246.484375 152.15625 243.121094 155.253906 C 239.5 158.867188 237.046875 158.867188 235.75 155.253906 C 234.972656 152.414062 235.105469 149.835938 236.136719 147.511719 C 237.433594 144.933594 238.984375 144.285156 240.792969 145.578125 Z M 240.792969 145.578125 " fill-opacity="1" fill-rule="evenodd"/><path fill="#332612" d="M 223.722656 195.121094 C 229.675781 198.480469 230.574219 202.476562 226.4375 207.121094 C 221.78125 212.027344 217.902344 212.414062 214.796875 208.28125 C 212.214844 204.664062 212.214844 201.050781 214.796875 197.441406 C 217.644531 193.828125 220.617188 193.054688 223.722656 195.121094 Z M 223.722656 195.121094 " fill-opacity="1" fill-rule="evenodd"/><path fill="#423523" d="M 143.015625 174.992188 C 148.964844 178.089844 150.128906 182.734375 146.507812 188.925781 C 142.882812 195.375 139.265625 197.699219 135.640625 195.886719 C 132.019531 194.082031 131.242188 189.570312 133.3125 182.339844 C 135.386719 175.125 138.613281 172.671875 143.015625 174.992188 Z M 143.015625 174.992188 " fill-opacity="1" fill-rule="evenodd"/><path fill="#423523" d="M 119.734375 185.832031 C 128.527344 186.605469 132.019531 190.609375 130.210938 197.828125 C 128.136719 205.570312 124.652344 208.15625 119.734375 205.570312 C 115.855469 203.503906 114.300781 199.632812 115.078125 193.960938 C 115.597656 188.285156 117.148438 185.574219 119.734375 185.832031 Z M 119.734375 185.832031 " fill-opacity="1" fill-rule="evenodd"/><path fill="#423523" d="M 85.589844 186.605469 C 89.210938 184.027344 91.152344 186.351562 91.410156 193.574219 C 91.671875 200.800781 89.601562 204.03125 85.199219 203.25 C 81.320312 202.476562 79.769531 199.890625 80.542969 195.507812 C 81.320312 191.636719 83.003906 188.671875 85.589844 186.605469 Z M 85.589844 186.605469 " fill-opacity="1" fill-rule="evenodd"/><path fill="#423523" d="M 127.882812 157.1875 C 133.058594 157.964844 134.867188 161.316406 133.3125 167.253906 C 131.761719 173.445312 128.914062 175.769531 124.777344 174.21875 C 120.640625 173.191406 119.089844 169.835938 120.121094 164.15625 C 121.152344 158.738281 123.746094 156.414062 127.882812 157.1875 Z M 127.882812 157.1875 " fill-opacity="1" fill-rule="evenodd"/><path fill="#423523" d="M 142.625 144.027344 C 145.996094 142.226562 147.933594 144.027344 148.445312 149.449219 C 149.222656 154.867188 148.058594 157.699219 144.953125 157.964844 C 142.105469 158.21875 140.429688 156.160156 139.910156 151.769531 C 139.65625 147.378906 140.554688 144.804688 142.625 144.027344 Z M 142.625 144.027344 " fill-opacity="1" fill-rule="evenodd"/><path fill="#423523" d="M 207.425781 192.410156 C 212.855469 192.410156 214.664062 195.507812 212.855469 201.699219 C 211.050781 208.15625 208.84375 210.867188 206.261719 209.835938 C 203.414062 208.800781 201.738281 205.703125 201.21875 200.546875 C 200.695312 195.121094 202.769531 192.410156 207.425781 192.410156 Z M 207.425781 192.410156 " fill-opacity="1" fill-rule="evenodd"/><path fill="#423523" d="M 186.472656 142.09375 C 191.382812 142.613281 193.199219 145.964844 191.90625 152.15625 C 190.609375 158.351562 187.636719 160.539062 182.980469 158.738281 C 178.324219 157.1875 176.773438 153.960938 178.324219 149.058594 C 179.875 144.160156 182.59375 141.839844 186.472656 142.09375 Z M 186.472656 142.09375 " fill-opacity="1" fill-rule="evenodd"/><path fill="#423523" d="M 175.21875 199.765625 C 181.949219 200.027344 185.828125 203.125 186.859375 209.054688 C 187.890625 214.730469 185.308594 216.925781 179.101562 215.640625 C 173.667969 214.351562 170.695312 211.378906 170.175781 206.738281 C 169.917969 201.824219 171.597656 199.503906 175.21875 199.765625 Z M 175.21875 199.765625 " fill-opacity="1" fill-rule="evenodd"/><path fill="#423523" d="M 136.804688 208.28125 C 141.207031 209.566406 143.535156 212.539062 143.789062 217.175781 C 144.054688 221.828125 141.074219 223.761719 134.867188 222.980469 C 128.65625 222.207031 126.460938 219.242188 128.269531 214.085938 C 129.820312 208.921875 132.671875 206.988281 136.804688 208.28125 Z M 136.804688 208.28125 " fill-opacity="1" fill-rule="evenodd"/><path fill="#423523" d="M 257.480469 201.699219 C 263.429688 200.671875 265.882812 203.378906 264.851562 209.835938 C 263.554688 216.03125 260.839844 218.730469 256.703125 217.964844 C 253.078125 217.183594 251.527344 214.351562 252.046875 209.441406 C 252.566406 204.542969 254.375 201.964844 257.480469 201.699219 Z M 257.480469 201.699219 " fill-opacity="1" fill-rule="evenodd"/><path fill="#423523" d="M 107.707031 159.511719 C 113.394531 159.765625 115.078125 162.476562 112.75 167.640625 C 110.421875 172.804688 107.574219 174.476562 104.214844 172.671875 C 101.109375 171.121094 100.199219 168.546875 101.496094 164.929688 C 102.792969 161.058594 104.855469 159.253906 107.707031 159.511719 Z M 107.707031 159.511719 " fill-opacity="1" fill-rule="evenodd"/><path fill="#423523" d="M 78.214844 180.800781 C 80.542969 180.800781 81.578125 182.734375 81.320312 186.605469 C 81.0625 190.21875 80.023438 192.410156 78.214844 193.183594 C 76.40625 194.214844 73.816406 193.703125 70.457031 191.636719 C 66.574219 189.832031 65.023438 187.378906 65.800781 184.28125 C 66.320312 181.441406 67.609375 180.023438 69.679688 180.023438 C 70.976562 180.023438 73.816406 180.28125 78.214844 180.800781 Z M 78.214844 180.800781 " fill-opacity="1" fill-rule="evenodd"/><g clip-path="url(#578438c91b)"><path fill="#423523" d="M 191.515625 117.707031 C 199.011719 117.707031 202.125 120.285156 200.828125 125.449219 C 199.796875 130.613281 197.082031 133.191406 192.679688 133.191406 C 189.3125 133.191406 187.503906 130.613281 187.25 125.449219 C 186.992188 120.285156 188.414062 117.707031 191.515625 117.707031 Z M 191.515625 117.707031 " fill-opacity="1" fill-rule="evenodd"/></g><path fill="#423523" d="M 226.4375 127.386719 C 229.285156 129.707031 228.632812 132.285156 224.496094 135.125 C 219.839844 137.703125 217.125 137.835938 216.347656 135.511719 C 215.054688 132.9375 215.183594 130.226562 216.738281 127.386719 C 218.808594 124.289062 222.039062 124.289062 226.4375 127.386719 Z M 226.4375 127.386719 " fill-opacity="1" fill-rule="evenodd"/><path fill="#423523" d="M 254.375 147.125 C 259.808594 151.515625 260.972656 155.128906 257.867188 157.964844 C 254.507812 160.804688 251.660156 161.058594 249.332031 158.738281 C 247.257812 156.933594 246.746094 153.960938 247.777344 149.835938 C 249.074219 145.707031 251.269531 144.804688 254.375 147.125 Z M 254.375 147.125 " fill-opacity="1" fill-rule="evenodd"/><path fill="#423523" d="M 285.804688 162.21875 C 290.980469 162.476562 293.953125 165.703125 294.730469 171.898438 C 295.503906 178.089844 293.6875 180.542969 289.296875 179.25 C 285.671875 178.222656 283.609375 174.992188 283.089844 169.574219 C 282.832031 164.410156 283.730469 161.964844 285.804688 162.21875 Z M 285.804688 162.21875 " fill-opacity="1" fill-rule="evenodd"/><path fill="#423523" d="M 260.582031 171.121094 C 264.464844 171.121094 266.273438 173.832031 266.015625 179.25 C 265.757812 184.414062 263.5625 186.859375 259.417969 186.605469 C 255.273438 186.351562 253.730469 183.640625 254.761719 178.476562 C 256.058594 173.578125 258 171.121094 260.582031 171.121094 Z M 260.582031 171.121094 " fill-opacity="1" fill-rule="evenodd"/><path fill="#423523" d="M 239.628906 176.15625 C 243 177.183594 243.640625 180.289062 241.570312 185.445312 C 239.242188 190.34375 236.78125 192.410156 234.199219 191.636719 C 231.613281 190.863281 231.09375 187.765625 232.644531 182.347656 C 234.199219 176.929688 236.527344 174.863281 239.628906 176.15625 Z M 239.628906 176.15625 " fill-opacity="1" fill-rule="evenodd"/><path fill="#423523" d="M 190.351562 176.929688 C 196.5625 180.800781 197.855469 184.539062 194.234375 188.152344 C 190.351562 192.023438 187.117188 192.023438 184.53125 188.152344 C 182.722656 185.058594 182.855469 182.09375 184.921875 179.25 C 186.992188 176.671875 188.800781 175.898438 190.351562 176.929688 Z M 190.351562 176.929688 " fill-opacity="1" fill-rule="evenodd"/><path fill="#423523" d="M 159.3125 162.21875 C 162.933594 162.21875 165 164.410156 165.519531 168.800781 C 165.777344 173.183594 164.222656 175.898438 160.863281 176.929688 C 157.503906 177.703125 155.6875 175.511719 155.429688 170.347656 C 155.429688 164.929688 156.726562 162.21875 159.3125 162.21875 Z M 159.3125 162.21875 " fill-opacity="1" fill-rule="evenodd"/><path fill="#54462e" d="M 132.925781 144.027344 C 139.132812 142.480469 142.371094 144.804688 142.625 150.996094 C 142.625 157.1875 140.042969 160.285156 134.867188 160.285156 C 130.210938 160.285156 128.136719 157.707031 128.65625 152.542969 C 128.914062 147.644531 130.34375 144.804688 132.925781 144.027344 Z M 132.925781 144.027344 " fill-opacity="1" fill-rule="evenodd"/><path fill="#54462e" d="M 176.382812 132.417969 C 181.816406 133.964844 183.757812 137.0625 182.203125 141.707031 C 180.652344 146.605469 177.679688 147.898438 173.28125 145.578125 C 169.398438 143.511719 167.972656 140.546875 169.011719 136.675781 C 170.042969 132.546875 172.503906 131.125 176.382812 132.417969 Z M 176.382812 132.417969 " fill-opacity="1" fill-rule="evenodd"/><path fill="#54462e" d="M 168.234375 152.929688 C 171.597656 154.222656 171.984375 157.964844 169.398438 164.15625 C 166.816406 170.347656 163.710938 171.253906 160.085938 166.867188 C 156.464844 162.476562 155.949219 158.605469 158.535156 155.253906 C 160.863281 151.902344 164.097656 151.128906 168.234375 152.929688 Z M 168.234375 152.929688 " fill-opacity="1" fill-rule="evenodd"/><path fill="#54462e" d="M 176.382812 169.574219 C 181.816406 170.347656 184.011719 173.578125 182.980469 179.25 C 181.949219 185.1875 179.101562 186.859375 174.445312 184.28125 C 170.5625 181.960938 169.398438 178.734375 170.953125 174.605469 C 172.246094 170.734375 174.054688 169.054688 176.382812 169.574219 Z M 176.382812 169.574219 " fill-opacity="1" fill-rule="evenodd"/><path fill="#54462e" d="M 153.101562 181.574219 C 157.757812 187.246094 158.792969 192.023438 156.207031 195.894531 C 153.359375 199.511719 149.609375 199.253906 144.953125 195.121094 C 140.8125 191.25 140.6875 187.378906 144.566406 183.507812 C 148.191406 179.636719 151.03125 178.996094 153.101562 181.574219 Z M 153.101562 181.574219 " fill-opacity="1" fill-rule="evenodd"/><path fill="#54462e" d="M 118.570312 168.414062 C 123.746094 173.058594 124.257812 177.183594 120.121094 180.800781 C 115.984375 184.414062 112.363281 184.414062 109.257812 180.800781 C 106.410156 177.703125 106.542969 174.351562 109.644531 170.734375 C 112.75 166.867188 115.722656 166.089844 118.570312 168.414062 Z M 118.570312 168.414062 " fill-opacity="1" fill-rule="evenodd"/><path fill="#54462e" d="M 95.289062 181.574219 C 104.34375 181.316406 107.574219 184.800781 104.988281 192.023438 C 102.140625 200.027344 99.035156 202.863281 95.675781 200.539062 C 92.828125 198.734375 91.152344 195.246094 90.632812 190.089844 C 89.855469 184.671875 91.410156 181.828125 95.289062 181.574219 Z M 95.289062 181.574219 " fill-opacity="1" fill-rule="evenodd"/><path fill="#54462e" d="M 71.230469 190.089844 C 76.144531 190.34375 77.960938 193.316406 76.664062 198.992188 C 75.367188 204.664062 72.914062 206.34375 69.292969 204.023438 C 65.921875 201.957031 64.765625 199.113281 65.800781 195.5 C 66.574219 191.636719 68.382812 189.832031 71.230469 190.089844 Z M 71.230469 190.089844 " fill-opacity="1" fill-rule="evenodd"/><path fill="#54462e" d="M 165.132812 196.667969 C 172.636719 197.699219 176.128906 200.796875 175.609375 205.957031 C 175.097656 211.113281 171.339844 213.699219 164.355469 213.699219 C 158.148438 213.699219 155.5625 210.726562 156.59375 204.796875 C 157.890625 198.605469 160.730469 195.894531 165.132812 196.667969 Z M 165.132812 196.667969 " fill-opacity="1" fill-rule="evenodd"/><path fill="#54462e" d="M 204.320312 185.832031 C 207.945312 185.320312 209.886719 188.285156 210.140625 194.734375 C 210.140625 201.183594 208.203125 204.023438 204.320312 203.25 C 200.441406 202.21875 198.632812 199.121094 198.890625 193.960938 C 199.144531 189.058594 200.960938 186.351562 204.320312 185.832031 Z M 204.320312 185.832031 " fill-opacity="1" fill-rule="evenodd"/><path fill="#54462e" d="M 205.484375 155.253906 C 210.660156 157.058594 212.335938 160.929688 210.527344 166.867188 C 208.722656 173.058594 205.617188 175.25 201.21875 173.445312 C 196.816406 171.898438 195.398438 168.148438 196.949219 162.21875 C 198.5 156.28125 201.347656 153.960938 205.484375 155.253906 Z M 205.484375 155.253906 " fill-opacity="1" fill-rule="evenodd"/><path fill="#54462e" d="M 192.679688 133.191406 C 198.890625 130.867188 201.859375 132.804688 201.605469 138.996094 C 201.347656 145.191406 199.019531 147.898438 194.621094 147.125 C 190.996094 146.351562 188.933594 144.160156 188.414062 140.546875 C 187.890625 136.929688 189.320312 134.484375 192.679688 133.191406 Z M 192.679688 133.191406 " fill-opacity="1" fill-rule="evenodd"/><path fill="#54462e" d="M 252.433594 184.28125 C 257.089844 186.859375 259.03125 189.832031 258.253906 193.183594 C 257.742188 196.800781 254.894531 198.21875 249.71875 197.441406 C 244.804688 196.667969 243.121094 193.835938 244.675781 188.925781 C 246.226562 184.027344 248.8125 182.480469 252.433594 184.28125 Z M 252.433594 184.28125 " fill-opacity="1" fill-rule="evenodd"/><path fill="#54462e" d="M 223.722656 207.121094 C 228.378906 208.15625 230.449219 210.988281 229.929688 215.640625 C 229.417969 220.023438 227.082031 222.476562 222.945312 222.988281 C 219.066406 223.253906 217.511719 220.667969 218.289062 215.246094 C 219.066406 209.308594 220.875 206.601562 223.722656 207.121094 Z M 223.722656 207.121094 " fill-opacity="1" fill-rule="evenodd"/><path fill="#302615" d="M 29.328125 189.316406 C 37.085938 195.507812 37.351562 200.671875 30.101562 204.796875 C 22.34375 209.179688 17.296875 208.535156 14.96875 202.863281 C 13.160156 198.21875 14.324219 194.214844 18.460938 190.863281 C 22.597656 187.511719 26.222656 186.992188 29.328125 189.316406 Z M 29.328125 189.316406 " fill-opacity="1" fill-rule="evenodd"/><path fill="#302615" d="M 18.851562 214.085938 C 22.730469 215.117188 24.027344 217.957031 22.730469 222.601562 C 21.179688 226.984375 18.207031 227.378906 13.804688 223.761719 C 9.414062 220.402344 8.375 217.703125 10.703125 215.636719 C 12.773438 213.574219 15.488281 213.050781 18.851562 214.085938 Z M 18.851562 214.085938 " fill-opacity="1" fill-rule="evenodd"/><path fill="#302615" d="M 120.507812 231.890625 C 126.199219 233.183594 127.492188 236.273438 124.390625 241.179688 C 121.285156 246.335938 117.539062 248.140625 113.136719 246.597656 C 109 245.308594 107.960938 242.335938 110.035156 237.695312 C 112.363281 232.789062 115.855469 230.855469 120.507812 231.890625 Z M 120.507812 231.890625 " fill-opacity="1" fill-rule="evenodd"/><path fill="#302615" d="M 194.621094 222.988281 C 201.605469 225.054688 203.414062 228.40625 200.054688 233.058594 C 196.691406 237.703125 192.160156 238.214844 186.472656 234.601562 C 181.296875 230.992188 180.394531 227.765625 183.757812 224.925781 C 186.859375 222.082031 190.484375 221.441406 194.621094 222.988281 Z M 194.621094 222.988281 " fill-opacity="1" fill-rule="evenodd"/><path fill="#302615" d="M 255.539062 222.214844 C 261.226562 222.726562 262.390625 225.953125 259.03125 231.890625 C 255.671875 237.566406 251.015625 238.988281 245.0625 236.148438 C 239.375 233.570312 238.210938 230.34375 241.570312 226.472656 C 245.195312 222.855469 249.851562 221.441406 255.539062 222.214844 Z M 255.539062 222.214844 " fill-opacity="1" fill-rule="evenodd"/><path fill="#302615" d="M 214.410156 238.859375 C 220.097656 240.398438 221.914062 242.984375 219.839844 246.597656 C 217.769531 250.207031 214.664062 251.246094 210.527344 249.6875 C 206.90625 248.660156 206.003906 246.328125 207.8125 242.730469 C 209.363281 239.378906 211.5625 238.085938 214.410156 238.859375 Z M 214.410156 238.859375 " fill-opacity="1" fill-rule="evenodd"/><path fill="#302615" d="M 305.203125 209.828125 C 313.230469 211.371094 315.167969 214.730469 311.023438 219.890625 C 306.890625 225.3125 302.109375 227.121094 296.667969 225.3125 C 291.75 223.761719 290.59375 220.535156 293.175781 215.636719 C 295.769531 210.734375 299.773438 208.800781 305.203125 209.828125 Z M 305.203125 209.828125 " fill-opacity="1" fill-rule="evenodd"/><path fill="#302615" d="M 342.453125 209.828125 C 346.335938 210.085938 347.621094 212.152344 346.335938 216.023438 C 345.292969 219.890625 342.585938 221.441406 338.179688 220.667969 C 333.785156 220.15625 332.488281 218.089844 334.296875 214.472656 C 335.859375 210.859375 338.574219 209.308594 342.453125 209.828125 Z M 342.453125 209.828125 " fill-opacity="1" fill-rule="evenodd"/><path fill="#302615" d="M 356.421875 182.734375 C 363.925781 184.28125 366.511719 186.992188 364.183594 190.863281 C 361.855469 194.988281 357.976562 196.539062 352.542969 195.507812 C 347.621094 194.476562 346.070312 191.898438 347.878906 187.765625 C 349.695312 183.640625 352.542969 181.960938 356.421875 182.734375 Z M 356.421875 182.734375 " fill-opacity="1" fill-rule="evenodd"/><path fill="#302615" d="M 50.667969 198.605469 C 52.996094 201.183594 51.832031 204.796875 47.175781 209.433594 C 42.773438 214.085938 39.800781 213.960938 38.25 209.054688 C 36.699219 204.410156 37.863281 200.925781 41.742188 198.605469 C 45.367188 196.019531 48.339844 196.019531 50.667969 198.605469 Z M 50.667969 198.605469 " fill-opacity="1" fill-rule="evenodd"/><path fill="#473822" d="M 54.160156 205.957031 C 65.023438 207.5 64.246094 211.894531 51.832031 219.109375 C 48.464844 220.914062 45.878906 221.046875 44.070312 219.503906 C 42.261719 218.210938 41.609375 215.636719 42.128906 211.765625 C 42.386719 208.148438 43.683594 206.089844 46.011719 205.5625 C 47.042969 205.308594 49.757812 205.441406 54.160156 205.957031 Z M 54.160156 205.957031 " fill-opacity="1" fill-rule="evenodd"/><path fill="#63553e" d="M 90.632812 223.375 C 94.769531 226.210938 94.511719 229.570312 89.855469 233.441406 C 85.199219 237.308594 81.0625 238.085938 77.441406 235.761719 C 73.816406 233.441406 73.949219 229.957031 77.828125 225.3125 C 81.707031 220.667969 85.976562 220.023438 90.632812 223.375 Z M 90.632812 223.375 " fill-opacity="1" fill-rule="evenodd"/><path fill="#473822" d="M 75.113281 207.894531 C 80.289062 208.921875 81.578125 211.246094 78.992188 214.851562 C 76.40625 218.722656 73.816406 220.148438 71.230469 219.109375 C 69.421875 218.082031 69.027344 215.890625 70.066406 212.53125 C 71.363281 209.179688 73.039062 207.628906 75.113281 207.894531 Z M 75.113281 207.894531 " fill-opacity="1" fill-rule="evenodd"/><path fill="#473822" d="M 135.253906 229.570312 C 140.167969 229.824219 143.015625 232.015625 143.789062 236.148438 C 144.3125 240.019531 143.277344 243.378906 140.6875 246.210938 C 138.613281 248.542969 135.898438 248.929688 132.539062 247.375 C 129.433594 246.082031 126.972656 243.757812 125.164062 240.40625 C 123.613281 237.828125 124.132812 235.25 126.71875 232.664062 C 129.046875 230.34375 131.894531 229.3125 135.253906 229.570312 Z M 135.253906 229.570312 " fill-opacity="1" fill-rule="evenodd"/><path fill="#473822" d="M 153.492188 217.183594 C 156.339844 220.28125 155.949219 222.988281 152.328125 225.320312 C 148.445312 227.386719 145.730469 226.734375 144.179688 223.382812 C 142.371094 219.769531 142.882812 217.058594 145.730469 215.246094 C 148.316406 213.4375 150.90625 214.085938 153.492188 217.183594 Z M 153.492188 217.183594 " fill-opacity="1" fill-rule="evenodd"/><path fill="#473822" d="M 206.261719 225.699219 C 208.84375 227.246094 208.84375 230.078125 206.261719 234.214844 C 203.414062 238.085938 200.183594 238.214844 196.5625 234.601562 C 192.679688 230.730469 192.425781 227.765625 195.785156 225.707031 C 199.144531 223.648438 202.636719 223.640625 206.261719 225.699219 Z M 206.261719 225.699219 " fill-opacity="1" fill-rule="evenodd"/><path fill="#63553e" d="M 190.742188 244.277344 C 196.429688 245.316406 197.726562 247.890625 194.621094 252.019531 C 191.773438 256.152344 188.800781 257.3125 185.695312 255.503906 C 182.847656 253.953125 182.328125 251.5 184.144531 248.148438 C 185.953125 245.050781 188.15625 243.757812 190.742188 244.277344 Z M 190.742188 244.277344 " fill-opacity="1" fill-rule="evenodd"/><path fill="#473822" d="M 265.628906 227.632812 C 269.507812 228.144531 270.925781 230.210938 269.894531 233.828125 C 269.121094 236.40625 267.3125 239.121094 264.464844 241.953125 C 261.359375 245.050781 257.734375 243.757812 253.597656 238.085938 C 252.046875 235.507812 252.824219 233.058594 255.925781 230.730469 C 258.773438 228.152344 262.003906 227.121094 265.628906 227.632812 Z M 265.628906 227.632812 " fill-opacity="1" fill-rule="evenodd"/><path fill="#63553e" d="M 295.894531 221.441406 C 301.0625 224.53125 301.96875 228.398438 298.609375 233.050781 C 294.984375 237.695312 290.59375 238.339844 285.417969 234.988281 C 280.246094 231.890625 279.597656 228.144531 283.476562 223.761719 C 287.355469 219.636719 291.492188 218.855469 295.894531 221.441406 Z M 295.894531 221.441406 " fill-opacity="1" fill-rule="evenodd"/><path fill="#473822" d="M 353.320312 209.054688 C 358.238281 210.347656 359.789062 212.792969 357.984375 216.410156 C 356.175781 220.023438 353.0625 221.054688 348.671875 219.503906 C 344.789062 217.957031 343.882812 215.636719 345.945312 212.539062 C 347.753906 209.441406 350.214844 208.28125 353.320312 209.054688 Z M 353.320312 209.054688 " fill-opacity="1" fill-rule="evenodd"/><path fill="#473822" d="M 337.796875 171.511719 C 341.679688 172.804688 342.84375 174.738281 341.289062 177.316406 C 339.480469 179.894531 337.410156 180.800781 335.082031 180.023438 C 333.011719 179.515625 332.359375 177.703125 333.140625 174.605469 C 333.660156 171.511719 335.214844 170.480469 337.796875 171.511719 Z M 337.796875 171.511719 " fill-opacity="1" fill-rule="evenodd"/><path fill="#54462e" d="M 34.757812 219.117188 C 38.636719 221.960938 38.636719 225.1875 34.757812 228.792969 C 30.621094 232.410156 26.476562 232.664062 22.34375 229.578125 C 17.949219 226.480469 17.816406 223.121094 21.953125 219.511719 C 25.835938 215.898438 30.101562 215.765625 34.757812 219.117188 Z M 34.757812 219.117188 " fill-opacity="1" fill-rule="evenodd"/><path fill="#54462e" d="M 65.023438 217.183594 C 67.09375 217.445312 67.09375 220.15625 65.023438 225.320312 C 62.953125 229.964844 60.367188 230.476562 57.261719 226.859375 C 53.902344 223.253906 53.382812 220.542969 55.710938 218.730469 C 57.519531 216.917969 60.625 216.410156 65.023438 217.183594 Z M 65.023438 217.183594 " fill-opacity="1" fill-rule="evenodd"/><path fill="#54462e" d="M 157.757812 228.792969 C 163.96875 229.3125 166.164062 232.15625 164.355469 237.316406 C 162.546875 242.21875 159.179688 243.898438 154.265625 242.34375 C 149.875 241.058594 148.578125 238.339844 150.386719 234.214844 C 152.195312 230.34375 154.65625 228.53125 157.757812 228.792969 Z M 157.757812 228.792969 " fill-opacity="1" fill-rule="evenodd"/><path fill="#54462e" d="M 106.929688 220.667969 C 111.839844 222.46875 113.394531 224.667969 111.585938 227.253906 C 109.511719 229.832031 106.285156 230.605469 101.886719 229.578125 C 97.75 228.539062 96.839844 226.605469 99.167969 223.769531 C 101.242188 220.667969 103.824219 219.636719 106.929688 220.667969 Z M 106.929688 220.667969 " fill-opacity="1" fill-rule="evenodd"/><path fill="#54462e" d="M 52.21875 180.023438 C 59.980469 181.316406 62.050781 183.507812 58.425781 186.605469 C 54.546875 189.964844 50.667969 190.863281 46.785156 189.316406 C 43.9375 188.285156 43.425781 186.351562 45.234375 183.507812 C 46.785156 180.667969 49.113281 179.507812 52.21875 180.023438 Z M 52.21875 180.023438 " fill-opacity="1" fill-rule="evenodd"/></svg>