<svg xmlns="http://www.w3.org/2000/svg" version="1.1" xmlns:xlink="http://www.w3.org/1999/xlink" width="400" height="400"><svg xmlns="http://www.w3.org/2000/svg" version="1.1" xmlns:xlink="http://www.w3.org/1999/xlink" width="400" height="400"><svg xmlns="http://www.w3.org/2000/svg" xmlns:xlink="http://www.w3.org/1999/xlink" width="400" zoomAndPan="magnify" viewBox="0 0 300 299.999988" height="400" preserveAspectRatio="xMidYMid meet" version="1.0"><defs><clipPath id="ded8aae259"><path d="M 2 0 L 182 0 L 182 299 L 2 299 Z M 2 0 " clip-rule="nonzero"></path></clipPath><clipPath id="13073d64f6"><path d="M 1 0 L 229.046875 45.277344 L 178.515625 299.808594 L -49.535156 254.535156 Z M 1 0 " clip-rule="nonzero"></path></clipPath><clipPath id="bd3b57bf28"><path d="M 1 0 L 229.046875 45.277344 L 178.515625 299.808594 L -49.535156 254.535156 Z M 1 0 " clip-rule="nonzero"></path></clipPath><clipPath id="407cdc9424"><path d="M 172 114 L 297 114 L 297 244 L 172 244 Z M 172 114 " clip-rule="nonzero"></path></clipPath><clipPath id="6dcaf8e21c"><path d="M 168.902344 117.214844 L 296.339844 113.253906 L 300.304688 240.691406 L 172.867188 244.65625 Z M 168.902344 117.214844 " clip-rule="nonzero"></path></clipPath><clipPath id="8980f74f6b"><path d="M 168.902344 117.214844 L 296.339844 113.253906 L 300.304688 240.691406 L 172.867188 244.65625 Z M 168.902344 117.214844 " clip-rule="nonzero"></path></clipPath></defs><g clip-path="url(#ded8aae259)"><g clip-path="url(#13073d64f6)"><g clip-path="url(#bd3b57bf28)"><path fill="#4bab13" d="M 164.503906 293.875 C 161.058594 223.453125 164.519531 172.457031 118.339844 117.96875 C 116.933594 116.246094 115.90625 115.089844 115.597656 114.933594 C 115.3125 115.382812 116.675781 117.074219 117.28125 118.234375 C 131.910156 140.398438 155.398438 183.492188 146.351562 209.375 C 136.335938 228.855469 103.722656 214.542969 90.753906 205.171875 C 53.460938 180.179688 37.070312 138.261719 29.652344 95.890625 C 24.664062 73.378906 21.859375 50.839844 15.097656 28.632812 C 13.09375 20.996094 7.828125 12.25 3.007812 4.648438 C 0.886719 0.613281 3.632812 0.523438 6.480469 1.457031 C 16.609375 4.785156 26.292969 7.851562 36.710938 10.894531 C 101.527344 27.109375 154.457031 66.953125 171.832031 133.316406 C 178.976562 157.347656 180.339844 184.921875 181.527344 216.230469 C 181.898438 237.769531 181.128906 266.542969 178.972656 290.355469 C 178.609375 294.011719 178.707031 298.429688 174.359375 298.394531 C 171.289062 298.242188 166.65625 297.65625 164.878906 294.679688 Z M 164.503906 293.875 " fill-opacity="1" fill-rule="nonzero"></path></g></g></g><g clip-path="url(#407cdc9424)"><g clip-path="url(#6dcaf8e21c)"><g clip-path="url(#8980f74f6b)"><path fill="#4bab13" d="M 172.761719 241.320312 C 175.191406 218.363281 178.300781 197.441406 184.554688 176.183594 C 191.96875 146.390625 215.019531 122.652344 245.097656 117.253906 C 258.648438 114.457031 276.550781 115.523438 290.847656 114.636719 C 292.414062 114.628906 293.53125 114.433594 295.152344 114.445312 C 295.644531 114.464844 295.964844 114.550781 296.070312 114.726562 C 296.082031 115.769531 294.300781 116.742188 293.363281 117.722656 C 283.03125 127.5625 280.210938 137.15625 274.234375 148.992188 C 265.558594 168.378906 256.539062 184.683594 243.109375 195.011719 C 233.867188 203.203125 202.6875 217.460938 196.140625 200.410156 C 194.382812 188.429688 209.769531 169.488281 217.9375 160.917969 C 219.023438 159.742188 226.050781 152.597656 221.136719 156.4375 C 212.390625 163.40625 204.128906 172.945312 198.703125 182.316406 C 192.277344 193.527344 187.023438 210.664062 182.625 234.167969 C 181.925781 238.574219 181.195312 244.527344 175.601562 243.703125 C 174.3125 243.730469 173.097656 242.855469 172.910156 241.976562 Z M 172.761719 241.320312 " fill-opacity="1" fill-rule="nonzero"></path></g></g></g></svg></svg><style>@media (prefers-color-scheme: light) { :root { filter: none; } }
@media (prefers-color-scheme: dark) { :root { filter: none; } }
</style></svg>