<svg xmlns="http://www.w3.org/2000/svg" width="520" height="520" viewBox="0 0 520 520">
  <defs>
    <pattern id="mesh" width="260" height="260" patternUnits="userSpaceOnUse">
      <path
        d="M26 156c38-74 110-78 154-6"
        fill="none"
        stroke="#0b1f16"
        stroke-opacity="0.28"
        stroke-width="1.4"
        stroke-linecap="round"
      />
      <path
        d="M44 78c66-26 116 10 152 66"
        fill="none"
        stroke="#0b1f16"
        stroke-opacity="0.20"
        stroke-width="1.2"
        stroke-linecap="round"
      />
      <path
        d="M190 214c-54-18-92-62-102-120"
        fill="none"
        stroke="#0b1f16"
        stroke-opacity="0.18"
        stroke-width="1.2"
        stroke-linecap="round"
      />
      <path
        d="M132 46c8 38 32 72 72 98"
        fill="none"
        stroke="#0b1f16"
        stroke-opacity="0.16"
        stroke-width="1.2"
        stroke-linecap="round"
      />
      <path
        d="M54 212c28-30 66-48 114-56"
        fill="none"
        stroke="#0b1f16"
        stroke-opacity="0.14"
        stroke-width="1.1"
        stroke-linecap="round"
      />
      <path
        d="M24 32c36 0 68 14 98 44"
        fill="none"
        stroke="#0b1f16"
        stroke-opacity="0.12"
        stroke-width="1.1"
        stroke-linecap="round"
      />
      <path
        d="M238 18c-28 42-66 72-114 92"
        fill="none"
        stroke="#0b1f16"
        stroke-opacity="0.10"
        stroke-width="1.1"
        stroke-linecap="round"
      />
      <circle cx="208" cy="64" r="2" fill="#0b1f16" fill-opacity="0.14" />
      <circle cx="84" cy="194" r="2" fill="#0b1f16" fill-opacity="0.14" />
      <circle cx="144" cy="122" r="1.8" fill="#0b1f16" fill-opacity="0.12" />
    </pattern>
  </defs>
  <rect width="100%" height="100%" fill="url(#mesh)" />
</svg>

